# 3ds Max Wavefront OBJ Exporter v0.97b - (c)2007 guruware
# File Created: 10.12.2014 21:06:21

mtllib Pot.mtl

#
# object Box001
#

v  -7.0000 0.0000 7.0000
v  -7.0000 0.0000 6.0000
v  -6.0000 0.0000 6.0000
v  7.0000 0.0000 6.0000
v  7.0000 0.0000 7.0000
v  6.0000 0.0000 7.0000
v  6.0000 0.0000 6.0000
v  -7.0000 0.0000 -7.0000
v  -6.0000 0.0000 -7.0000
v  -6.0000 0.0000 -6.0000
v  6.0000 0.0000 -6.0000
v  6.0000 0.0000 -7.0000
v  7.0000 0.0000 -7.0000
v  7.0000 0.0000 -6.0000
v  -7.0000 8.0000 7.0000
v  -6.0000 8.0000 7.0000
v  -6.0000 8.0000 6.0000
v  -6.0000 8.0000 -6.0000
v  -6.0000 8.0000 -7.0000
v  -7.0000 8.0000 -7.0000
v  -6.0000 8.0000 -0.0000
v  6.0000 8.0000 7.0000
v  6.0000 8.0000 6.0000
v  7.0000 8.0000 7.0000
v  7.0000 8.0000 -7.0000
v  6.0000 8.0000 -7.0000
v  6.0000 8.0000 -6.0000
v  6.0000 1.0000 5.0000
v  6.0000 1.0000 -6.0000
v  -5.0000 1.0000 -6.0000
v  6.0000 1.0000 6.0000
v  0.0000 1.0000 6.0000
v  -6.0000 1.0000 6.0000
v  -6.0000 1.0000 -6.0000
v  6.0000 1.0000 7.0000
v  -6.0000 1.0000 7.0000
v  -6.0000 7.0000 7.0000
v  -5.0000 7.0000 7.0000
v  5.0000 7.0000 7.0000
v  6.0000 7.0000 7.0000
v  6.0000 1.0000 8.0000
v  6.0000 7.0000 8.0000
v  -6.0000 7.0000 8.0000
v  -6.0000 1.0000 8.0000
v  7.0000 1.0000 -6.0000
v  7.0000 1.0000 6.0000
v  7.0000 7.0000 -6.0000
v  7.0000 7.0000 -5.0000
v  7.0000 7.0000 5.0000
v  7.0000 7.0000 6.0000
v  8.0000 1.0000 -6.0000
v  8.0000 7.0000 -6.0000
v  8.0000 7.0000 -2.0000
v  8.0000 6.0000 -2.0000
v  8.0000 6.0000 2.0000
v  8.0000 7.0000 2.0000
v  8.0000 7.0000 6.0000
v  8.0000 1.0000 6.0000
v  9.0000 6.0000 -2.0000
v  9.0000 7.0000 -2.0000
v  9.0000 7.0000 2.0000
v  9.0000 6.0000 2.0000
v  -6.0000 1.0000 -7.0000
v  6.0000 1.0000 -7.0000
v  -6.0000 7.0000 -7.0000
v  -5.0000 7.0000 -7.0000
v  5.0000 7.0000 -7.0000
v  6.0000 7.0000 -7.0000
v  -6.0000 1.0000 -8.0000
v  -6.0000 7.0000 -8.0000
v  6.0000 7.0000 -8.0000
v  6.0000 1.0000 -8.0000
v  -7.0000 1.0000 6.0000
v  -7.0000 1.0000 -6.0000
v  -7.0000 7.0000 -6.0000
v  -7.0000 7.0000 -5.0000
v  -7.0000 7.0000 5.0000
v  -7.0000 7.0000 6.0000
v  -8.0000 1.0000 6.0000
v  -8.0000 7.0000 6.0000
v  -8.0000 7.0000 2.0000
v  -8.0000 6.0000 2.0000
v  -8.0000 6.0000 -2.0000
v  -8.0000 7.0000 -2.0000
v  -8.0000 7.0000 -6.0000
v  -8.0000 1.0000 -6.0000
v  -9.0000 6.0000 2.0000
v  -9.0000 7.0000 2.0000
v  -9.0000 7.0000 -2.0000
v  -9.0000 6.0000 -2.0000
v  -5.0000 2.0000 7.0000
v  5.0000 2.0000 7.0000
v  7.0000 2.0000 5.0000
v  7.0000 2.0000 -5.0000
v  5.0000 2.0000 -7.0000
v  -5.0000 2.0000 -7.0000
v  -6.0000 7.0000 -5.0000
v  -6.0000 7.0000 -0.0000
v  -6.0000 7.0000 5.0000
v  -7.0000 2.0000 5.0000
v  -7.0000 2.0000 -5.0000
v  0.0000 2.0000 6.0000
v  5.0000 2.0000 6.0000
v  5.0000 7.0000 6.0000
v  -5.0000 7.0000 6.0000
v  -6.0000 7.0000 6.0000
v  -5.0000 2.0000 6.0000
v  6.0000 2.0000 5.0000
v  6.0000 7.0000 5.0000
v  6.0000 7.0000 -5.0000
v  6.0000 2.0000 -5.0000
v  5.0000 2.0000 -6.0000
v  -5.0000 2.0000 -6.0000
v  5.0000 7.0000 -6.0000
v  -5.0000 7.0000 -6.0000
v  -6.0000 7.0000 -6.0000
v  -6.0000 2.0000 -5.0000
v  -6.0000 2.0000 5.0000
# 118 vertices

vn 0.0000 -1.0000 -0.0000
vn 0.0000 1.0000 -0.0000
vn 0.0000 0.0000 1.0000
vn 1.0000 0.0000 -0.0000
vn 0.0000 0.0000 -1.0000
vn -1.0000 0.0000 -0.0000
# 6 vertex normals

vt 0.0167 0.2500 0.0000
vt 0.0167 0.2333 0.0000
vt 0.0333 0.2333 0.0000
vt 0.2500 0.2333 0.0000
vt 0.2500 0.2500 0.0000
vt 0.2333 0.2500 0.0000
vt 0.2333 0.2333 0.0000
vt 0.0167 0.0167 0.0000
vt 0.0333 0.0167 0.0000
vt 0.0333 0.0333 0.0000
vt 0.2333 0.0333 0.0000
vt 0.2333 0.0167 0.0000
vt 0.2500 0.0167 0.0000
vt 0.2500 0.0333 0.0000
vt 0.0167 0.2667 0.0000
vt 0.0333 0.2667 0.0000
vt 0.0333 0.2833 0.0000
vt 0.0333 0.4833 0.0000
vt 0.0333 0.5000 0.0000
vt 0.0167 0.5000 0.0000
vt 0.0333 0.3833 0.0000
vt 0.2333 0.2667 0.0000
vt 0.2333 0.2833 0.0000
vt 0.2500 0.2667 0.0000
vt 0.2500 0.5000 0.0000
vt 0.2333 0.5000 0.0000
vt 0.2333 0.4833 0.0000
vt 0.4667 0.0333 0.0000
vt 0.4667 0.2167 0.0000
vt 0.2833 0.2167 0.0000
vt 0.4667 0.0167 0.0000
vt 0.3667 0.0167 0.0000
vt 0.2667 0.0167 0.0000
vt 0.2667 0.2167 0.0000
vt 0.2801 0.3666 0.0000
vt 0.2628 0.3666 0.0000
vt 0.2628 0.2282 0.0000
vt 0.2801 0.3493 0.0000
vt 0.4878 0.3493 0.0000
vt 0.5051 0.3666 0.0000
vt 0.5051 0.2282 0.0000
vt 0.4878 0.2455 0.0000
vt 0.4878 0.2282 0.0000
vt 0.2801 0.2282 0.0000
vt 0.4705 0.2455 0.0000
vt 0.2974 0.2455 0.0000
vt 0.2801 0.2455 0.0000
vt 0.4940 0.6560 0.0000
vt 0.4940 0.5522 0.0000
vt 0.7017 0.5522 0.0000
vt 0.7017 0.6560 0.0000
vt 0.7500 0.3667 0.0000
vt 0.5500 0.3667 0.0000
vt 0.5500 0.3500 0.0000
vt 0.7500 0.3500 0.0000
vt 0.7667 0.3667 0.0000
vt 0.5333 0.3667 0.0000
vt 0.5333 0.2333 0.0000
vt 0.5500 0.2500 0.0000
vt 0.5667 0.2500 0.0000
vt 0.7333 0.2500 0.0000
vt 0.7500 0.2500 0.0000
vt 0.7667 0.2333 0.0000
vt 0.0167 0.7500 0.0000
vt 0.0167 0.6500 0.0000
vt 0.0833 0.6500 0.0000
vt 0.0833 0.6667 0.0000
vt 0.1500 0.6667 0.0000
vt 0.1500 0.6500 0.0000
vt 0.2167 0.6500 0.0000
vt 0.2167 0.7500 0.0000
vt 0.4000 0.9667 0.0000
vt 0.4000 0.9500 0.0000
vt 0.4667 0.9500 0.0000
vt 0.4667 0.9667 0.0000
vt 0.7000 0.1500 0.0000
vt 0.5000 0.1500 0.0000
vt 0.5000 0.1333 0.0000
vt 0.7000 0.1333 0.0000
vt 0.7167 0.1500 0.0000
vt 0.4833 0.1500 0.0000
vt 0.4833 0.0167 0.0000
vt 0.5000 0.0333 0.0000
vt 0.5000 0.0167 0.0000
vt 0.5167 0.0333 0.0000
vt 0.7000 0.0167 0.0000
vt 0.6833 0.0333 0.0000
vt 0.7000 0.0333 0.0000
vt 0.7167 0.0167 0.0000
vt 0.7667 0.5000 0.0000
vt 0.7667 0.3833 0.0000
vt 0.9667 0.3833 0.0000
vt 0.9667 0.5000 0.0000
vt 0.2833 0.5333 0.0000
vt 0.2667 0.5333 0.0000
vt 0.2667 0.4000 0.0000
vt 0.5000 0.5333 0.0000
vt 0.2833 0.5167 0.0000
vt 0.4833 0.5167 0.0000
vt 0.5000 0.4000 0.0000
vt 0.4833 0.4167 0.0000
vt 0.4667 0.4167 0.0000
vt 0.3000 0.4167 0.0000
vt 0.2833 0.4167 0.0000
vt 0.2628 0.8007 0.0000
vt 0.2628 0.6969 0.0000
vt 0.3320 0.6969 0.0000
vt 0.3320 0.7142 0.0000
vt 0.4012 0.7142 0.0000
vt 0.4012 0.6969 0.0000
vt 0.4705 0.6969 0.0000
vt 0.4705 0.8007 0.0000
vt 0.4000 0.9167 0.0000
vt 0.4000 0.9000 0.0000
vt 0.4667 0.9000 0.0000
vt 0.4667 0.9167 0.0000
vt 0.2203 0.8683 0.0000
vt 0.0127 0.8683 0.0000
vt 0.0127 0.8510 0.0000
vt 0.2203 0.8510 0.0000
vt 0.0127 0.9327 0.0000
vt 0.1165 0.9327 0.0000
vt 0.1165 0.9500 0.0000
vt 0.0127 0.9500 0.0000
vt 0.6667 0.1667 0.0000
vt 0.6833 0.1667 0.0000
vt 0.6833 0.1833 0.0000
vt 0.5000 0.1667 0.0000
vt 0.4833 0.1667 0.0000
vt 0.4833 0.1833 0.0000
vt 0.6000 0.8333 0.0000
vt 0.5000 0.8333 0.0000
vt 0.5000 0.8167 0.0000
vt 0.6000 0.8167 0.0000
vt 0.2628 0.8242 0.0000
vt 0.4705 0.8242 0.0000
vt 0.4705 0.8415 0.0000
vt 0.2628 0.8415 0.0000
vt 0.5000 0.8500 0.0000
vt 0.6000 0.8500 0.0000
vt 0.6000 0.8667 0.0000
vt 0.5000 0.8667 0.0000
vt 0.5167 0.7000 0.0000
vt 0.5000 0.7000 0.0000
vt 0.5000 0.6833 0.0000
vt 0.6833 0.7000 0.0000
vt 0.7000 0.7000 0.0000
vt 0.7000 0.6833 0.0000
vt 0.7333 0.8333 0.0000
vt 0.6333 0.8333 0.0000
vt 0.6333 0.8167 0.0000
vt 0.7333 0.8167 0.0000
vt 0.9333 0.5667 0.0000
vt 0.7167 0.5667 0.0000
vt 0.7167 0.5500 0.0000
vt 0.9333 0.5500 0.0000
vt 0.6333 0.8500 0.0000
vt 0.7333 0.8500 0.0000
vt 0.7333 0.8667 0.0000
vt 0.6333 0.8667 0.0000
vt 0.7667 0.2167 0.0000
vt 0.7500 0.2167 0.0000
vt 0.7500 0.2000 0.0000
vt 0.9333 0.2167 0.0000
vt 0.8167 0.2000 0.0000
vt 0.8833 0.2000 0.0000
vt 0.9500 0.2167 0.0000
vt 0.9500 0.2000 0.0000
vt 0.3667 0.9167 0.0000
vt 0.2667 0.9167 0.0000
vt 0.2667 0.9000 0.0000
vt 0.3667 0.9000 0.0000
vt 0.5000 0.7167 0.0000
vt 0.7000 0.7167 0.0000
vt 0.7000 0.7333 0.0000
vt 0.5000 0.7333 0.0000
vt 0.5000 0.9000 0.0000
vt 0.6000 0.9000 0.0000
vt 0.6000 0.9167 0.0000
vt 0.5000 0.9167 0.0000
vt 0.2000 0.7500 0.0000
vt 0.2167 0.7667 0.0000
vt 0.0333 0.7500 0.0000
vt 0.1500 0.7667 0.0000
vt 0.0833 0.7667 0.0000
vt 0.0167 0.7667 0.0000
vt 0.3667 0.9667 0.0000
vt 0.2667 0.9667 0.0000
vt 0.2667 0.9500 0.0000
vt 0.3667 0.9500 0.0000
vt 0.1333 0.4667 0.0000
vt 0.0500 0.4667 0.0000
vt 0.0500 0.2833 0.0000
vt 0.1333 0.2833 0.0000
vt 0.8000 0.3167 0.0000
vt 0.8000 0.2333 0.0000
vt 0.9667 0.2333 0.0000
vt 0.9667 0.3167 0.0000
vt 0.2167 0.4667 0.0000
vt 0.2167 0.2833 0.0000
vt 0.7667 0.0333 0.0000
vt 0.8500 0.0333 0.0000
vt 0.9333 0.0333 0.0000
vt 0.9333 0.1167 0.0000
vt 0.7667 0.1167 0.0000
vt 0.2167 0.6333 0.0000
vt 0.1167 0.6333 0.0000
vt 0.1167 0.6167 0.0000
vt 0.2000 0.6167 0.0000
vt 0.2000 0.5333 0.0000
vt 0.2167 0.5167 0.0000
vt 0.0333 0.5333 0.0000
vt 0.0167 0.5167 0.0000
vt 0.0167 0.5333 0.0000
vt 0.0333 0.6167 0.0000
vt 0.0167 0.6333 0.0000
vt 0.2801 0.6560 0.0000
vt 0.2801 0.6733 0.0000
vt 0.2628 0.6733 0.0000
vt 0.2801 0.5695 0.0000
vt 0.2628 0.5522 0.0000
vt 0.4705 0.5522 0.0000
vt 0.4532 0.5695 0.0000
vt 0.4705 0.6733 0.0000
vt 0.4532 0.6560 0.0000
vt 0.5500 0.5167 0.0000
vt 0.7167 0.5167 0.0000
vt 0.7167 0.5333 0.0000
vt 0.5333 0.5333 0.0000
vt 0.5500 0.4167 0.0000
vt 0.5333 0.4000 0.0000
vt 0.7167 0.4167 0.0000
vt 0.7333 0.4000 0.0000
vt 0.7333 0.4167 0.0000
vt 0.7333 0.5333 0.0000
vt 0.7500 0.0167 0.0000
vt 0.8500 0.0167 0.0000
vt 0.7500 0.0333 0.0000
vt 0.9500 0.0167 0.0000
vt 0.9500 0.0333 0.0000
vt 0.9500 0.1333 0.0000
vt 0.7500 0.1333 0.0000
vt 0.8167 0.1833 0.0000
vt 0.8833 0.1833 0.0000
vt 0.7667 0.5333 0.0000
vt 0.7667 0.5167 0.0000
vt 0.7833 0.5167 0.0000
vt 0.7833 0.5333 0.0000
vt 0.1500 0.7833 0.0000
vt 0.0833 0.7833 0.0000
vt 0.7167 0.2000 0.0000
vt 0.7167 0.1833 0.0000
vt 0.7333 0.1833 0.0000
vt 0.7333 0.2000 0.0000
vt 0.9000 0.6167 0.0000
vt 0.7167 0.6167 0.0000
vt 0.7167 0.6000 0.0000
vt 0.9000 0.6000 0.0000
vt 0.9667 0.8333 0.0000
vt 0.8833 0.8333 0.0000
vt 0.8833 0.8167 0.0000
vt 0.9667 0.8167 0.0000
vt 0.9000 0.7333 0.0000
vt 0.7333 0.7333 0.0000
vt 0.7333 0.7167 0.0000
vt 0.9000 0.7167 0.0000
vt 0.7667 0.8500 0.0000
vt 0.8500 0.8500 0.0000
vt 0.8500 0.8667 0.0000
vt 0.7667 0.8667 0.0000
vt 0.8333 0.9167 0.0000
vt 0.7500 0.9167 0.0000
vt 0.7500 0.9000 0.0000
vt 0.8333 0.9000 0.0000
vt 0.7945 0.3383 0.0000
vt 0.9675 0.3383 0.0000
vt 0.9675 0.3556 0.0000
vt 0.7945 0.3556 0.0000
vt 0.6333 0.9500 0.0000
vt 0.7167 0.9500 0.0000
vt 0.7167 0.9667 0.0000
vt 0.6333 0.9667 0.0000
vt 0.9000 0.7000 0.0000
vt 0.7167 0.7000 0.0000
vt 0.7167 0.6833 0.0000
vt 0.9000 0.6833 0.0000
vt 0.7167 0.9167 0.0000
vt 0.6333 0.9167 0.0000
vt 0.6333 0.9000 0.0000
vt 0.7167 0.9000 0.0000
vt 0.0992 0.8918 0.0000
vt 0.1857 0.8918 0.0000
vt 0.1857 0.9091 0.0000
vt 0.0127 0.8918 0.0000
vt 0.0127 0.9091 0.0000
vt 0.7667 0.8167 0.0000
vt 0.8500 0.8167 0.0000
vt 0.8500 0.8333 0.0000
vt 0.7667 0.8333 0.0000
vt 0.5000 0.7667 0.0000
vt 0.6667 0.7667 0.0000
vt 0.6667 0.7833 0.0000
vt 0.5000 0.7833 0.0000
vt 0.5833 0.9667 0.0000
vt 0.5000 0.9667 0.0000
vt 0.5000 0.9500 0.0000
vt 0.5833 0.9500 0.0000
vt 0.4359 0.8824 0.0000
vt 0.2628 0.8824 0.0000
vt 0.2628 0.8651 0.0000
vt 0.4359 0.8651 0.0000
vt 0.8833 0.8500 0.0000
vt 0.9667 0.8500 0.0000
vt 0.9667 0.8667 0.0000
vt 0.8833 0.8667 0.0000
vt 0.4667 0.9833 0.0000
vt 0.4000 0.9833 0.0000
vt 0.9816 0.5522 0.0000
vt 0.9816 0.5695 0.0000
vt 0.9643 0.5695 0.0000
vt 0.9643 0.5522 0.0000
vt 0.9927 0.0127 0.0000
vt 0.9927 0.0300 0.0000
vt 0.9754 0.0300 0.0000
vt 0.9754 0.0127 0.0000
vt 0.4000 0.9333 0.0000
vt 0.4667 0.9333 0.0000
# 327 texture coords

g Box001
usemtl 01___Default
s 2
f 1/1/1 2/2/1 3/3/1 
f 4/4/1 5/5/1 6/6/1 
f 7/7/1 4/4/1 6/6/1 
f 3/3/1 7/7/1 6/6/1 
f 1/1/1 3/3/1 6/6/1 
f 8/8/1 9/9/1 10/10/1 
f 2/2/1 8/8/1 10/10/1 
f 2/2/1 10/10/1 3/3/1 
f 3/3/1 10/10/1 11/11/1 
f 11/11/1 7/7/1 3/3/1 
f 11/11/1 12/12/1 13/13/1 
f 11/11/1 13/13/1 14/14/1 
f 7/7/1 11/11/1 14/14/1 
f 7/7/1 14/14/1 4/4/1 
f 10/10/1 9/9/1 12/12/1 
f 12/12/1 11/11/1 10/10/1 
s 4
f 15/15/2 16/16/2 17/17/2 
f 18/18/2 19/19/2 20/20/2 
f 21/21/2 18/18/2 20/20/2 
f 17/17/2 21/21/2 20/20/2 
f 15/15/2 17/17/2 20/20/2 
f 16/16/2 22/22/2 23/23/2 
f 23/23/2 17/17/2 16/16/2 
f 22/22/2 24/24/2 25/25/2 
f 25/25/2 26/26/2 27/27/2 
f 25/25/2 27/27/2 23/23/2 
f 22/22/2 25/25/2 23/23/2 
f 28/28/2 29/29/2 30/30/2 
f 31/31/2 28/28/2 30/30/2 
f 32/32/2 31/31/2 30/30/2 
f 33/33/2 32/32/2 30/30/2 
f 33/33/2 30/30/2 34/34/2 
f 18/18/2 27/27/2 26/26/2 
f 26/26/2 19/19/2 18/18/2 
s 8
f 6/35/3 5/36/3 24/37/3 
f 6/35/3 35/38/3 36/39/3 
f 1/40/3 6/35/3 36/39/3 
f 15/41/3 1/40/3 36/39/3 
f 15/41/3 36/39/3 37/42/3 
f 16/43/3 15/41/3 37/42/3 
f 22/44/3 16/43/3 37/42/3 
f 22/44/3 37/42/3 38/45/3 
f 22/44/3 38/45/3 39/46/3 
f 22/44/3 39/46/3 40/47/3 
f 24/37/3 22/44/3 40/47/3 
f 24/37/3 40/47/3 35/38/3 
f 6/35/3 24/37/3 35/38/3 
f 41/48/3 42/49/3 43/50/3 
f 43/50/3 44/51/3 41/48/3 
s 16
f 4/52/4 14/53/4 45/54/4 
f 4/52/4 45/54/4 46/55/4 
f 5/56/4 4/52/4 46/55/4 
f 14/53/4 13/57/4 25/58/4 
f 45/54/4 14/53/4 25/58/4 
f 47/59/4 45/54/4 25/58/4 
f 48/60/4 47/59/4 25/58/4 
f 49/61/4 48/60/4 25/58/4 
f 50/62/4 49/61/4 25/58/4 
f 50/62/4 25/58/4 24/63/4 
f 46/55/4 50/62/4 24/63/4 
f 5/56/4 46/55/4 24/63/4 
f 51/64/4 52/65/4 53/66/4 
f 51/64/4 53/66/4 54/67/4 
f 51/64/4 54/67/4 55/68/4 
f 55/68/4 56/69/4 57/70/4 
f 51/64/4 55/68/4 57/70/4 
f 58/71/4 51/64/4 57/70/4 
f 59/72/4 60/73/4 61/74/4 
f 61/74/4 62/75/4 59/72/4 
s 32
f 12/76/5 9/77/5 63/78/5 
f 12/76/5 63/78/5 64/79/5 
f 13/80/5 12/76/5 64/79/5 
f 9/77/5 8/81/5 20/82/5 
f 63/78/5 9/77/5 20/82/5 
f 65/83/5 63/78/5 20/82/5 
f 65/83/5 20/82/5 19/84/5 
f 66/85/5 65/83/5 19/84/5 
f 66/85/5 19/84/5 26/86/5 
f 67/87/5 66/85/5 26/86/5 
f 68/88/5 67/87/5 26/86/5 
f 68/88/5 26/86/5 25/89/5 
f 64/79/5 68/88/5 25/89/5 
f 13/80/5 64/79/5 25/89/5 
f 69/90/5 70/91/5 71/92/5 
f 71/92/5 72/93/5 69/90/5 
s 64
f 2/94/6 1/95/6 15/96/6 
f 8/97/6 2/94/6 73/98/6 
f 8/97/6 73/98/6 74/99/6 
f 20/100/6 8/97/6 74/99/6 
f 20/100/6 74/99/6 75/101/6 
f 20/100/6 75/101/6 76/102/6 
f 20/100/6 76/102/6 77/103/6 
f 20/100/6 77/103/6 78/104/6 
f 15/96/6 20/100/6 78/104/6 
f 15/96/6 78/104/6 73/98/6 
f 2/94/6 15/96/6 73/98/6 
f 79/105/6 80/106/6 81/107/6 
f 79/105/6 81/107/6 82/108/6 
f 79/105/6 82/108/6 83/109/6 
f 83/109/6 84/110/6 85/111/6 
f 79/105/6 83/109/6 85/111/6 
f 86/112/6 79/105/6 85/111/6 
f 87/113/6 88/114/6 89/115/6 
f 89/115/6 90/116/6 87/113/6 
s off
f 36/117/1 35/118/1 41/119/1 
f 41/119/1 44/120/1 36/117/1 
f 35/121/4 40/122/4 42/123/4 
f 42/123/4 41/124/4 35/121/4 
f 38/125/2 37/126/2 43/127/2 
f 39/128/2 38/125/2 43/127/2 
f 40/129/2 39/128/2 43/127/2 
f 40/129/2 43/127/2 42/130/2 
f 37/131/6 36/132/6 44/133/6 
f 44/133/6 43/134/6 37/131/6 
f 64/135/1 63/136/1 69/137/1 
f 69/137/1 72/138/1 64/135/1 
f 63/139/6 65/140/6 70/141/6 
f 70/141/6 69/142/6 63/139/6 
f 67/143/2 68/144/2 71/145/2 
f 66/146/2 67/143/2 71/145/2 
f 65/147/2 66/146/2 71/145/2 
f 65/147/2 71/145/2 70/148/2 
f 68/149/4 64/150/4 72/151/4 
f 72/151/4 71/152/4 68/149/4 
f 46/153/1 45/154/1 51/155/1 
f 51/155/1 58/156/1 46/153/1 
f 45/157/5 47/158/5 52/159/5 
f 52/159/5 51/160/5 45/157/5 
f 49/161/2 50/162/2 57/163/2 
f 48/164/2 49/161/2 57/163/2 
f 48/164/2 57/163/2 56/165/2 
f 48/164/2 56/165/2 53/166/2 
f 47/167/2 48/164/2 53/166/2 
f 47/167/2 53/166/2 52/168/2 
f 50/169/3 46/170/3 58/171/3 
f 58/171/3 57/172/3 50/169/3 
f 74/173/1 73/174/1 79/175/1 
f 79/175/1 86/176/1 74/173/1 
f 73/177/3 78/178/3 80/179/3 
f 80/179/3 79/180/3 73/177/3 
f 76/181/2 75/71/2 85/182/2 
f 77/183/2 76/181/2 85/182/2 
f 77/183/2 85/182/2 84/184/2 
f 77/183/2 84/184/2 81/185/2 
f 78/64/2 77/183/2 81/185/2 
f 78/64/2 81/185/2 80/186/2 
f 75/187/5 74/188/5 86/189/5 
f 86/189/5 85/190/5 75/187/5 
f 91/191/5 38/192/5 39/193/5 
f 39/193/5 92/194/5 91/191/5 
f 93/195/6 49/196/6 48/197/6 
f 48/197/6 94/198/6 93/195/6 
f 95/199/3 67/191/3 66/194/3 
f 66/194/3 96/200/3 95/199/3 
f 76/201/1 97/201/1 98/202/1 
f 76/201/1 98/202/1 99/203/1 
f 76/201/1 99/203/1 77/203/1 
f 76/201/4 77/203/4 100/204/4 
f 101/205/4 76/201/4 100/204/4 
f 31/206/5 32/207/5 102/208/5 
f 31/206/5 102/208/5 103/209/5 
f 31/206/5 103/209/5 104/210/5 
f 23/211/5 31/206/5 104/210/5 
f 23/211/5 104/210/5 105/212/5 
f 17/213/5 23/211/5 105/212/5 
f 106/214/5 17/213/5 105/212/5 
f 106/214/5 105/212/5 107/215/5 
f 107/215/5 102/208/5 32/207/5 
f 107/215/5 32/207/5 33/216/5 
f 106/214/5 107/215/5 33/216/5 
f 108/217/6 28/218/6 31/219/6 
f 109/220/6 108/217/6 31/219/6 
f 109/220/6 31/219/6 23/221/6 
f 109/220/6 23/221/6 27/222/6 
f 110/223/6 109/220/6 27/222/6 
f 110/223/6 27/222/6 29/224/6 
f 111/225/6 110/223/6 29/224/6 
f 108/217/6 111/225/6 29/224/6 
f 108/217/6 29/224/6 28/218/6 
f 112/226/3 113/227/3 30/228/3 
f 112/226/3 30/228/3 29/229/3 
f 114/230/3 112/226/3 29/229/3 
f 114/230/3 29/229/3 27/231/3 
f 115/232/3 114/230/3 27/231/3 
f 27/231/3 18/233/3 116/234/3 
f 115/232/3 27/231/3 116/234/3 
f 115/232/3 116/234/3 34/235/3 
f 113/227/3 115/232/3 34/235/3 
f 113/227/3 34/235/3 30/228/3 
f 18/236/4 21/237/4 98/202/4 
f 18/236/4 98/202/4 97/201/4 
f 116/238/4 18/236/4 97/201/4 
f 116/238/4 97/201/4 117/205/4 
f 99/203/4 98/202/4 21/237/4 
f 21/237/4 17/239/4 106/240/4 
f 99/203/4 21/237/4 106/240/4 
f 99/203/4 106/240/4 33/241/4 
f 118/204/4 99/203/4 33/241/4 
f 117/205/4 118/204/4 33/241/4 
f 117/205/4 33/241/4 34/242/4 
f 116/238/4 117/205/4 34/242/4 
f 53/166/2 56/165/2 61/243/2 
f 61/243/2 60/244/2 53/166/2 
f 56/245/3 55/246/3 62/247/3 
f 62/247/3 61/248/3 56/245/3 
f 81/185/2 84/184/2 89/249/2 
f 89/249/2 88/250/2 81/185/2 
f 84/251/5 83/252/5 90/253/5 
f 90/253/5 89/254/5 84/251/5 
f 109/255/1 110/256/1 48/257/1 
f 48/257/1 49/258/1 109/255/1 
f 110/259/3 111/260/3 94/261/3 
f 94/261/3 48/262/3 110/259/3 
f 111/263/2 108/264/2 93/265/2 
f 93/265/2 94/266/2 111/263/2 
f 108/267/5 109/268/5 49/269/5 
f 49/269/5 93/270/5 108/267/5 
f 99/271/5 118/272/5 100/273/5 
f 100/273/5 77/274/5 99/271/5 
f 118/275/2 117/276/2 101/277/2 
f 101/277/2 100/278/2 118/275/2 
f 117/279/3 97/280/3 76/281/3 
f 76/281/3 101/282/3 117/279/3 
f 105/283/1 104/284/1 39/285/1 
f 39/285/1 38/286/1 105/283/1 
f 104/287/6 103/288/6 92/289/6 
f 92/289/6 39/290/6 104/287/6 
f 102/291/2 107/292/2 91/293/2 
f 103/294/2 102/291/2 91/293/2 
f 103/294/2 91/293/2 92/295/2 
f 107/296/4 105/297/4 38/298/4 
f 38/298/4 91/299/4 107/296/4 
f 114/300/1 115/301/1 66/302/1 
f 66/302/1 67/303/1 114/300/1 
f 115/304/4 113/305/4 96/306/4 
f 96/306/4 66/307/4 115/304/4 
f 113/308/2 112/309/2 95/310/2 
f 95/310/2 96/311/2 113/308/2 
f 112/312/6 114/313/6 67/314/6 
f 67/314/6 95/315/6 112/312/6 
f 55/316/1 54/317/1 59/72/1 
f 59/72/1 62/75/1 55/316/1 
f 54/318/5 53/319/5 60/320/5 
f 60/320/5 59/321/5 54/318/5 
f 82/322/3 81/323/3 88/324/3 
f 88/324/3 87/325/3 82/322/3 
f 83/326/1 82/327/1 87/74/1 
f 87/74/1 90/73/1 83/326/1 
# 248 faces

