# 3ds Max Wavefront OBJ Exporter v0.97b - (c)2007 guruware
# File Created: 11.12.2014 13:28:55

mtllib Churn Base.mtl

#
# object Box001
#

v  -6.0000 0.0000 6.0000
v  -6.0000 0.0000 -6.0000
v  6.0000 0.0000 -6.0000
v  6.0000 0.0000 6.0000
v  -6.0000 16.0000 6.0000
v  6.0000 16.0000 6.0000
v  6.0000 16.0000 -6.0000
v  -6.0000 16.0000 -6.0000
# 8 vertices

vn 0.0000 -1.0000 -0.0000
vn 0.0000 1.0000 -0.0000
vn 0.0000 0.0000 1.0000
vn 1.0000 0.0000 -0.0000
vn 0.0000 0.0000 -1.0000
vn -1.0000 0.0000 -0.0000
# 6 vertex normals

vt 0.5313 0.5625 0.0000
vt 0.5313 0.1875 0.0000
vt 0.9063 0.1875 0.0000
vt 0.9063 0.5625 0.0000
vt 0.5313 0.5938 0.0000
vt 0.9063 0.5938 0.0000
vt 0.9063 0.9688 0.0000
vt 0.5313 0.9688 0.0000
vt 0.0000 0.7188 0.0000
vt 0.0000 0.3438 0.0000
vt 0.5000 0.3438 0.0000
vt 0.5000 0.7188 0.0000
# 12 texture coords

g Box001
usemtl 01___Default
s 2
f 1/1/1 2/2/1 3/3/1 
f 3/3/1 4/4/1 1/1/1 
s 4
f 5/5/2 6/6/2 7/7/2 
f 7/7/2 8/8/2 5/5/2 
s 8
f 1/9/3 4/10/3 6/11/3 
f 6/11/3 5/12/3 1/9/3 
s 16
f 4/9/4 3/10/4 7/11/4 
f 7/11/4 6/12/4 4/9/4 
s 32
f 3/9/5 2/10/5 8/11/5 
f 8/11/5 7/12/5 3/9/5 
s 64
f 2/9/6 1/10/6 5/11/6 
f 5/11/6 8/12/6 2/9/6 
# 12 faces

