# 3ds Max Wavefront OBJ Exporter v0.97b - (c)2007 guruware
# File Created: 07.01.2015 13:41:24

mtllib Crate.mtl

#
# object Box001
#

v  -8.0000 0.0000 8.0000
v  -8.0000 0.0000 7.0000
v  -7.0000 0.0000 7.0000
v  -7.0000 0.0000 8.0000
v  7.0000 0.0000 7.0000
v  7.0000 0.0000 8.0000
v  8.0000 0.0000 7.0000
v  8.0000 0.0000 8.0000
v  -8.0000 0.0000 -7.0000
v  -7.0000 0.0000 -7.0000
v  7.0000 0.0000 -7.0000
v  8.0000 0.0000 -7.0000
v  7.0000 1.0000 7.0000
v  -7.0000 1.0000 7.0000
v  -7.0000 1.0000 -7.0000
v  7.0000 1.0000 -7.0000
v  -8.0000 0.0000 -8.0000
v  -7.0000 0.0000 -8.0000
v  7.0000 0.0000 -8.0000
v  8.0000 0.0000 -8.0000
v  -8.0000 16.0000 8.0000
v  -7.0000 16.0000 8.0000
v  -7.0000 16.0000 7.0000
v  -8.0000 16.0000 7.0000
v  7.0000 16.0000 8.0000
v  7.0000 16.0000 7.0000
v  8.0000 16.0000 8.0000
v  8.0000 16.0000 7.0000
v  -7.0000 16.0000 -7.0000
v  -8.0000 16.0000 -7.0000
v  8.0000 16.0000 -7.0000
v  7.0000 16.0000 -7.0000
v  -7.0000 15.0000 -7.0000
v  -7.0000 15.0000 7.0000
v  7.0000 15.0000 7.0000
v  7.0000 15.0000 -7.0000
v  -7.0000 16.0000 -8.0000
v  -8.0000 16.0000 -8.0000
v  7.0000 16.0000 -8.0000
v  8.0000 16.0000 -8.0000
v  -7.0000 1.0000 8.0000
v  -8.0000 1.0000 8.0000
v  7.0000 1.0000 8.0000
v  8.0000 1.0000 8.0000
v  -7.0000 15.0000 8.0000
v  -8.0000 15.0000 8.0000
v  8.0000 15.0000 8.0000
v  7.0000 15.0000 8.0000
v  8.0000 1.0000 7.0000
v  8.0000 1.0000 -7.0000
v  8.0000 1.0000 -8.0000
v  8.0000 15.0000 7.0000
v  8.0000 15.0000 -8.0000
v  8.0000 15.0000 -7.0000
v  7.0000 1.0000 -8.0000
v  -7.0000 1.0000 -8.0000
v  -8.0000 1.0000 -8.0000
v  7.0000 15.0000 -8.0000
v  -8.0000 15.0000 -8.0000
v  -7.0000 15.0000 -8.0000
v  -8.0000 1.0000 -7.0000
v  -8.0000 1.0000 7.0000
v  -8.0000 15.0000 -7.0000
v  -8.0000 15.0000 7.0000
# 64 vertices

vn 0.0000 -1.0000 -0.0000
vn 0.0000 1.0000 -0.0000
vn 0.0000 0.0000 1.0000
vn 1.0000 0.0000 -0.0000
vn 0.0000 0.0000 -1.0000
vn -1.0000 0.0000 -0.0000
# 6 vertex normals

vt 0.2500 0.5000 0.0000
vt 0.2500 0.4844 0.0000
vt 0.2656 0.4844 0.0000
vt 0.2656 0.5000 0.0000
vt 0.4844 0.4844 0.0000
vt 0.4844 0.5000 0.0000
vt 0.5000 0.4844 0.0000
vt 0.5000 0.5000 0.0000
vt 0.2500 0.2656 0.0000
vt 0.2656 0.2656 0.0000
vt 0.4844 0.2656 0.0000
vt 0.5000 0.2656 0.0000
vt 0.2344 0.2344 0.0000
vt 0.0156 0.2344 0.0000
vt 0.0156 0.0156 0.0000
vt 0.2344 0.0156 0.0000
vt 0.2500 0.2500 0.0000
vt 0.2656 0.2500 0.0000
vt 0.4844 0.2500 0.0000
vt 0.5000 0.2500 0.0000
vt -0.0000 0.5000 0.0000
vt 0.0156 0.5000 0.0000
vt 0.0156 0.5156 0.0000
vt -0.0000 0.5156 0.0000
vt 0.2344 0.5000 0.0000
vt 0.2344 0.5156 0.0000
vt 0.2500 0.5156 0.0000
vt 0.0156 0.7344 0.0000
vt -0.0000 0.7344 0.0000
vt 0.2500 0.7344 0.0000
vt 0.2344 0.7344 0.0000
vt 0.0156 0.4844 0.0000
vt 0.0156 0.2656 0.0000
vt 0.2344 0.2656 0.0000
vt 0.2344 0.4844 0.0000
vt 0.0156 0.7500 0.0000
vt -0.0000 0.7500 0.0000
vt 0.2344 0.7500 0.0000
vt 0.2500 0.7500 0.0000
vt 0.2500 0.0000 0.0000
vt 0.2656 0.0000 0.0000
vt 0.2656 0.0156 0.0000
vt 0.2500 0.0156 0.0000
vt 0.4844 0.0000 0.0000
vt 0.4844 0.0156 0.0000
vt 0.5000 0.0000 0.0000
vt 0.5000 0.0156 0.0000
vt 0.2656 0.2344 0.0000
vt 0.2500 0.2344 0.0000
vt 0.5000 0.2344 0.0000
vt 0.4844 0.2344 0.0000
vt 0.5156 0.2344 0.0000
vt 0.5156 0.0156 0.0000
vt 0.7344 0.0156 0.0000
vt 0.7344 0.2344 0.0000
vt 0.5156 0.0000 0.0000
vt 0.7344 0.0000 0.0000
vt 0.7500 0.0000 0.0000
vt 0.7500 0.0156 0.0000
vt 0.7500 0.2344 0.0000
vt 0.5156 0.2500 0.0000
vt 0.7344 0.2500 0.0000
vt 0.7500 0.2500 0.0000
vt -0.0000 0.2500 0.0000
vt 0.0156 0.2500 0.0000
vt -0.0000 0.2656 0.0000
vt 0.2344 0.2500 0.0000
vt -0.0000 0.4844 0.0000
vt 0.0000 0.0000 0.0000
vt 0.0156 0.0000 0.0000
vt 0.0000 0.0156 0.0000
vt 0.2344 -0.0000 0.0000
vt 0.2500 -0.0000 0.0000
vt 0.0000 0.2344 0.0000
vt 0.0000 0.2500 0.0000
vt 0.7656 0.4844 0.0000
vt 0.9844 0.4844 0.0000
vt 0.9844 0.5000 0.0000
vt 0.7656 0.5000 0.0000
vt 0.2656 0.7344 0.0000
vt 0.4844 0.7344 0.0000
vt 0.4844 0.7500 0.0000
vt 0.2656 0.7500 0.0000
vt 0.7656 0.0000 0.0000
vt 0.9844 0.0000 0.0000
vt 0.9844 0.0156 0.0000
vt 0.7656 0.0156 0.0000
vt 0.7344 0.5156 0.0000
vt 0.5156 0.5156 0.0000
vt 0.5156 0.5000 0.0000
vt 0.7344 0.5000 0.0000
vt 0.4844 0.5156 0.0000
vt 0.2656 0.5156 0.0000
vt 0.9844 0.5156 0.0000
vt 0.7656 0.5156 0.0000
vt 0.9844 0.7500 0.0000
vt 0.7656 0.7500 0.0000
vt 0.7656 0.7344 0.0000
vt 0.9844 0.7344 0.0000
vt 0.9844 0.2500 0.0000
vt 0.7656 0.2500 0.0000
vt 0.7656 0.2344 0.0000
vt 0.9844 0.2344 0.0000
vt 0.5156 0.4844 0.0000
vt 0.7344 0.4844 0.0000
vt 0.7344 0.2656 0.0000
vt 0.5156 0.2656 0.0000
vt 0.9844 0.2656 0.0000
vt 0.7656 0.2656 0.0000
vt 0.5156 0.7344 0.0000
vt 0.7344 0.7344 0.0000
vt 0.7344 0.7500 0.0000
vt 0.5156 0.7500 0.0000
# 113 texture coords

g Box001
usemtl 01___Default
s 2
f 1/1/1 2/2/1 3/3/1 
f 3/3/1 4/4/1 1/1/1 
f 4/4/1 3/3/1 5/5/1 
f 5/5/1 6/6/1 4/4/1 
f 6/6/1 5/5/1 7/7/1 
f 7/7/1 8/8/1 6/6/1 
f 2/2/1 9/9/1 10/10/1 
f 10/10/1 3/3/1 2/2/1 
f 5/5/1 11/11/1 12/12/1 
f 12/12/1 7/7/1 5/5/1 
f 13/13/1 14/14/1 15/15/1 
f 15/15/1 16/16/1 13/13/1 
f 9/9/1 17/17/1 18/18/1 
f 18/18/1 10/10/1 9/9/1 
f 10/10/1 18/18/1 19/19/1 
f 19/19/1 11/11/1 10/10/1 
f 11/11/1 19/19/1 20/20/1 
f 20/20/1 12/12/1 11/11/1 
s 4
f 21/21/2 22/22/2 23/23/2 
f 23/23/2 24/24/2 21/21/2 
f 22/22/2 25/25/2 26/26/2 
f 26/26/2 23/23/2 22/22/2 
f 25/25/2 27/1/2 28/27/2 
f 28/27/2 26/26/2 25/25/2 
f 24/24/2 23/23/2 29/28/2 
f 29/28/2 30/29/2 24/24/2 
f 26/26/2 28/27/2 31/30/2 
f 31/30/2 32/31/2 26/26/2 
f 33/32/2 34/33/2 35/34/2 
f 35/34/2 36/35/2 33/32/2 
f 30/29/2 29/28/2 37/36/2 
f 37/36/2 38/37/2 30/29/2 
f 29/28/2 32/31/2 39/38/2 
f 39/38/2 37/36/2 29/28/2 
f 32/31/2 31/30/2 40/39/2 
f 40/39/2 39/38/2 32/31/2 
s 8
f 1/40/3 4/41/3 41/42/3 
f 41/42/3 42/43/3 1/40/3 
f 4/41/3 6/44/3 43/45/3 
f 43/45/3 41/42/3 4/41/3 
f 6/44/3 8/46/3 44/47/3 
f 44/47/3 43/45/3 6/44/3 
f 42/43/3 41/42/3 45/48/3 
f 45/48/3 46/49/3 42/43/3 
f 43/45/3 44/47/3 47/50/3 
f 47/50/3 48/51/3 43/45/3 
f 34/52/3 14/53/3 13/54/3 
f 13/54/3 35/55/3 34/52/3 
f 46/49/3 45/48/3 22/18/3 
f 22/18/3 21/17/3 46/49/3 
f 45/48/3 48/51/3 25/19/3 
f 25/19/3 22/18/3 45/48/3 
f 48/51/3 47/50/3 27/20/3 
f 27/20/3 25/19/3 48/51/3 
s 16
f 8/46/4 7/56/4 49/53/4 
f 49/53/4 44/47/4 8/46/4 
f 7/56/4 12/57/4 50/54/4 
f 50/54/4 49/53/4 7/56/4 
f 12/57/4 20/58/4 51/59/4 
f 51/59/4 50/54/4 12/57/4 
f 44/47/4 49/53/4 52/52/4 
f 52/52/4 47/50/4 44/47/4 
f 50/54/4 51/59/4 53/60/4 
f 53/60/4 54/55/4 50/54/4 
f 35/28/4 13/23/4 16/26/4 
f 16/26/4 36/31/4 35/28/4 
f 47/50/4 52/52/4 28/61/4 
f 28/61/4 27/20/4 47/50/4 
f 52/52/4 54/55/4 31/62/4 
f 31/62/4 28/61/4 52/52/4 
f 54/55/4 53/60/4 40/63/4 
f 40/63/4 31/62/4 54/55/4 
s 32
f 20/64/5 19/65/5 55/33/5 
f 55/33/5 51/66/5 20/64/5 
f 19/65/5 18/67/5 56/34/5 
f 56/34/5 55/33/5 19/65/5 
f 18/67/5 17/17/5 57/9/5 
f 57/9/5 56/34/5 18/67/5 
f 51/66/5 55/33/5 58/32/5 
f 58/32/5 53/68/5 51/66/5 
f 56/34/5 57/9/5 59/2/5 
f 59/2/5 60/35/5 56/34/5 
f 36/48/5 16/42/5 15/45/5 
f 15/45/5 33/51/5 36/48/5 
f 53/68/5 58/32/5 39/22/5 
f 39/22/5 40/21/5 53/68/5 
f 60/35/5 37/25/5 39/22/5 
f 39/22/5 58/32/5 60/35/5 
f 60/35/5 59/2/5 38/1/5 
f 38/1/5 37/25/5 60/35/5 
s 64
f 17/69/6 9/70/6 61/15/6 
f 61/15/6 57/71/6 17/69/6 
f 9/70/6 2/72/6 62/16/6 
f 62/16/6 61/15/6 9/70/6 
f 2/72/6 1/73/6 42/43/6 
f 42/43/6 62/16/6 2/72/6 
f 57/71/6 61/15/6 63/14/6 
f 63/14/6 59/74/6 57/71/6 
f 62/16/6 42/43/6 46/49/6 
f 46/49/6 64/13/6 62/16/6 
f 33/3/6 15/10/6 14/11/6 
f 14/11/6 34/5/6 33/3/6 
f 59/74/6 63/14/6 30/65/6 
f 30/65/6 38/75/6 59/74/6 
f 64/13/6 24/67/6 30/65/6 
f 30/65/6 63/14/6 64/13/6 
f 64/13/6 46/49/6 21/17/6 
f 21/17/6 24/67/6 64/13/6 
s off
f 49/76/2 50/77/2 16/78/2 
f 16/78/2 13/79/2 49/76/2 
f 50/80/3 54/81/3 36/82/3 
f 36/82/3 16/83/3 50/80/3 
f 54/84/1 52/85/1 35/86/1 
f 35/86/1 36/87/1 54/84/1 
f 52/88/5 49/89/5 13/90/5 
f 13/90/5 35/91/5 52/88/5 
f 61/92/2 62/93/2 14/4/2 
f 14/4/2 15/6/2 61/92/2 
f 62/79/5 64/78/5 34/94/5 
f 34/94/5 14/95/5 62/79/5 
f 64/96/1 63/97/1 33/98/1 
f 33/98/1 34/99/1 64/96/1 
f 63/100/3 61/101/3 15/102/3 
f 15/102/3 33/103/3 63/100/3 
f 5/91/5 3/90/5 14/104/5 
f 14/104/5 13/105/5 5/91/5 
f 3/88/4 10/89/4 15/90/4 
f 15/90/4 14/91/4 3/88/4 
f 10/106/3 11/107/3 16/61/3 
f 16/61/3 15/62/3 10/106/3 
f 11/108/6 5/109/6 13/101/6 
f 13/101/6 16/100/6 11/108/6 
f 23/79/5 26/78/5 35/94/5 
f 35/94/5 34/95/5 23/79/5 
f 26/101/6 32/100/6 36/108/6 
f 36/108/6 35/109/6 26/101/6 
f 32/61/3 29/62/3 33/106/3 
f 33/106/3 36/107/3 32/61/3 
f 29/110/4 23/111/4 34/112/4 
f 34/112/4 33/113/4 29/110/4 
f 41/86/2 43/87/2 13/84/2 
f 13/84/2 14/85/2 41/86/2 
f 43/80/6 48/81/6 35/82/6 
f 35/82/6 13/83/6 43/80/6 
f 48/4/1 45/6/1 34/92/1 
f 34/92/1 35/93/1 48/4/1 
f 45/100/4 41/101/4 14/102/4 
f 14/102/4 34/103/4 45/100/4 
f 55/98/2 56/99/2 15/96/2 
f 15/96/2 16/97/2 55/98/2 
f 56/76/4 60/77/4 33/78/4 
f 33/78/4 15/79/4 56/76/4 
f 60/91/1 58/90/1 36/104/1 
f 36/104/1 33/105/1 60/91/1 
f 58/112/6 55/113/6 16/110/6 
f 16/110/6 36/111/6 58/112/6 
# 156 faces

