# 3ds Max Wavefront OBJ Exporter v0.97b - (c)2007 guruware
# File Created: 24.11.2014 18:23:44

mtllib Cutting Board.mtl

#
# object Box001
#

v  7.0000 0.0000 -6.0667
v  7.0000 0.0000 6.0667
v  6.0667 0.0000 7.0000
v  -6.0667 0.0000 7.0000
v  -7.0000 0.0000 6.0667
v  -7.0000 0.0000 -6.0667
v  -6.0667 0.0000 -7.0000
v  6.0667 0.0000 -7.0000
v  6.0667 1.0000 -7.0000
v  -6.0667 1.0000 -7.0000
v  -7.0000 1.0000 -6.0667
v  -7.0000 1.0000 6.0667
v  -6.0667 1.0000 7.0000
v  6.0667 1.0000 7.0000
v  7.0000 1.0000 6.0667
v  7.0000 1.0000 -6.0667
# 16 vertices

vn 0.0000 -1.0000 -0.0000
vn 0.0000 1.0000 -0.0000
vn -0.7071 0.0000 0.7071
vn -0.3827 0.0000 0.9239
vn 0.0000 0.0000 1.0000
vn 0.7071 0.0000 0.7071
vn 0.9239 0.0000 0.3827
vn 1.0000 0.0000 -0.0000
vn 0.7071 0.0000 -0.7071
vn 0.3827 0.0000 -0.9239
vn 0.0000 0.0000 -1.0000
vn -0.7071 0.0000 -0.7071
vn -0.9239 0.0000 -0.3827
vn -1.0000 0.0000 -0.0000
# 14 vertex normals

vt 0.4688 0.0625 0.0000
vt 0.4688 0.4375 0.0000
vt 0.4375 0.4688 0.0000
vt 0.0625 0.4688 0.0000
vt 0.0313 0.4375 0.0000
vt 0.0313 0.0625 0.0000
vt 0.0625 0.0313 0.0000
vt 0.4375 0.0313 0.0000
vt 0.4375 0.9375 0.0000
vt 0.0625 0.9375 0.0000
vt 0.0313 0.9063 0.0000
vt 0.0313 0.5313 0.0000
vt 0.0625 0.5000 0.0000
vt 0.4375 0.5000 0.0000
vt 0.4688 0.5313 0.0000
vt 0.4688 0.9063 0.0000
vt 0.5000 0.4688 0.0000
vt 0.5000 0.5000 0.0000
vt 0.4688 0.5000 0.0000
vt 0.4688 0.4688 0.0000
vt 0.5000 0.9375 0.0000
vt 0.4688 0.9375 0.0000
vt 0.0313 0.0000 0.0000
vt 0.0313 0.0313 0.0000
vt 0.0000 0.0313 0.0000
vt 0.0000 0.0000 0.0000
vt 0.0313 0.4688 0.0000
vt 0.0000 0.4688 0.0000
vt 0.0313 0.5000 0.0000
vt 0.0000 0.5000 0.0000
vt 0.0000 0.9375 0.0000
vt -0.0000 0.9375 0.0000
vt -0.0000 0.5000 0.0000
vt 0.5000 0.0000 0.0000
vt 0.5000 0.0313 0.0000
vt 0.4688 0.0313 0.0000
vt 0.4688 0.0000 0.0000
# 37 texture coords

g Box001
usemtl 01___Default
s 2
f 1/1/1 2/2/1 3/3/1 
f 3/3/1 4/4/1 5/5/1 
f 5/5/1 6/6/1 7/7/1 
f 3/3/1 5/5/1 7/7/1 
f 1/1/1 3/3/1 7/7/1 
f 8/8/1 1/1/1 7/7/1 
s 4
f 9/9/2 10/10/2 11/11/2 
f 11/11/2 12/12/2 13/13/2 
f 13/13/2 14/14/2 15/15/2 
f 11/11/2 13/13/2 15/15/2 
f 9/9/2 11/11/2 15/15/2 
f 16/16/2 9/9/2 15/15/2 
s 8
f 5/17/3 4/18/4 13/19/4 
f 13/19/4 12/20/3 5/17/3 
f 4/18/4 3/21/5 14/22/5 
f 14/22/5 13/19/4 4/18/4 
s 16
f 3/23/6 2/24/7 15/25/7 
f 15/25/7 14/26/6 3/23/6 
f 2/24/7 1/27/8 16/28/8 
f 16/28/8 15/25/7 2/24/7 
s 32
f 1/27/9 8/29/10 9/30/10 
f 9/30/10 16/28/9 1/27/9 
f 8/30/10 7/31/11 10/32/11 
f 10/32/11 9/33/10 8/30/10 
s 64
f 7/34/12 6/35/13 11/36/13 
f 11/36/13 10/37/12 7/34/12 
f 6/35/13 5/17/14 12/20/14 
f 12/20/14 11/36/13 6/35/13 
# 28 faces

