# 3ds Max Wavefront OBJ Exporter v0.97b - (c)2007 guruware
# File Created: 24.11.2014 19:43:24

mtllib Fryingpan.mtl

#
# object Box001
#

v  -7.0000 0.0000 7.0000
v  -7.0000 0.0000 -7.0000
v  -6.0000 0.0000 -7.0000
v  7.0000 0.0000 -7.0000
v  7.0000 0.0000 7.0000
v  6.0000 0.0000 7.0000
v  6.0000 0.0000 -7.0000
v  5.0000 0.0000 7.0000
v  5.0000 0.0000 -7.0000
v  4.0000 0.0000 7.0000
v  4.0000 0.0000 -7.0000
v  3.0000 0.0000 7.0000
v  3.0000 0.0000 -7.0000
v  2.0000 0.0000 7.0000
v  2.0000 0.0000 -7.0000
v  1.0000 0.0000 7.0000
v  1.0000 0.0000 -7.0000
v  0.0000 0.0000 7.0000
v  0.0000 0.0000 -7.0000
v  -1.0000 0.0000 7.0000
v  -1.0000 0.0000 -7.0000
v  -2.0000 0.0000 7.0000
v  -2.0000 0.0000 -7.0000
v  -3.0000 0.0000 7.0000
v  -3.0000 0.0000 -7.0000
v  -4.0000 0.0000 7.0000
v  -4.0000 0.0000 -7.0000
v  -5.0000 0.0000 7.0000
v  -5.0000 0.0000 -7.0000
v  -6.0000 0.0000 7.0000
v  6.0000 1.0000 6.0000
v  6.0000 1.0000 -6.0000
v  -6.0000 1.0000 -6.0000
v  5.0000 1.0000 6.0000
v  4.0000 1.0000 6.0000
v  3.0000 1.0000 6.0000
v  2.0000 1.0000 6.0000
v  1.0000 1.0000 6.0000
v  0.0000 1.0000 6.0000
v  -1.0000 1.0000 6.0000
v  -2.0000 1.0000 6.0000
v  -3.0000 1.0000 6.0000
v  -4.0000 1.0000 6.0000
v  -5.0000 1.0000 6.0000
v  -6.0000 1.0000 6.0000
v  0.0000 2.0000 25.0000
v  1.0000 2.0000 25.0000
v  1.0000 3.0000 25.0000
v  1.0000 4.0000 25.0000
v  0.0000 4.0000 25.0000
v  -1.0000 2.0000 25.0000
v  -1.0000 4.0000 25.0000
v  -1.0000 3.0000 25.0000
v  -6.0000 4.0000 7.0000
v  -7.0000 4.0000 7.0000
v  -7.0000 3.0000 7.0000
v  -5.0000 4.0000 7.0000
v  -4.0000 4.0000 7.0000
v  -3.0000 4.0000 7.0000
v  -7.0000 1.0000 7.0000
v  -7.0000 2.0000 7.0000
v  7.0000 1.0000 7.0000
v  7.0000 2.0000 7.0000
v  7.0000 3.0000 7.0000
v  7.0000 4.0000 7.0000
v  6.0000 4.0000 7.0000
v  5.0000 4.0000 7.0000
v  4.0000 4.0000 7.0000
v  3.0000 4.0000 7.0000
v  2.0000 4.0000 7.0000
v  1.0000 4.0000 7.0000
v  1.0000 3.0000 7.0000
v  1.0000 2.0000 7.0000
v  0.0000 2.0000 7.0000
v  -1.0000 2.0000 7.0000
v  -1.0000 3.0000 7.0000
v  -1.0000 4.0000 7.0000
v  -2.0000 4.0000 7.0000
v  7.0000 1.0000 -7.0000
v  7.0000 4.0000 -7.0000
v  7.0000 3.0000 -7.0000
v  7.0000 2.0000 -7.0000
v  -7.0000 1.0000 -7.0000
v  -7.0000 2.0000 -7.0000
v  -7.0000 3.0000 -7.0000
v  -7.0000 4.0000 -7.0000
v  -6.0000 4.0000 -7.0000
v  -5.0000 4.0000 -7.0000
v  -4.0000 4.0000 -7.0000
v  -3.0000 4.0000 -7.0000
v  -2.0000 4.0000 -7.0000
v  -1.0000 4.0000 -7.0000
v  0.0000 4.0000 -7.0000
v  1.0000 4.0000 -7.0000
v  2.0000 4.0000 -7.0000
v  3.0000 4.0000 -7.0000
v  4.0000 4.0000 -7.0000
v  5.0000 4.0000 -7.0000
v  6.0000 4.0000 -7.0000
v  0.0000 4.0000 7.0000
v  1.0000 4.0000 6.0000
v  0.0000 4.0000 6.0000
v  -1.0000 4.0000 6.0000
v  -2.0000 4.0000 6.0000
v  -3.0000 4.0000 6.0000
v  -4.0000 4.0000 6.0000
v  -5.0000 4.0000 6.0000
v  -6.0000 4.0000 6.0000
v  -6.0000 4.0000 -6.0000
v  -5.0000 4.0000 -6.0000
v  -4.0000 4.0000 -6.0000
v  -3.0000 4.0000 -6.0000
v  -2.0000 4.0000 -6.0000
v  -1.0000 4.0000 -6.0000
v  0.0000 4.0000 -6.0000
v  1.0000 4.0000 -6.0000
v  2.0000 4.0000 -6.0000
v  3.0000 4.0000 -6.0000
v  4.0000 4.0000 -6.0000
v  5.0000 4.0000 -6.0000
v  6.0000 4.0000 -6.0000
v  6.0000 4.0000 6.0000
v  5.0000 4.0000 6.0000
v  4.0000 4.0000 6.0000
v  3.0000 4.0000 6.0000
v  2.0000 4.0000 6.0000
v  -1.0000 2.0000 15.0000
v  -1.0000 3.0000 15.0000
v  -1.0000 4.0000 15.0000
v  1.0000 2.0000 15.0000
v  0.0000 2.0000 15.0000
v  1.0000 4.0000 15.0000
v  1.0000 3.0000 15.0000
v  0.0000 4.0000 15.0000
# 134 vertices

vn 0.0000 -1.0000 -0.0000
vn 0.0000 0.7071 -0.7071
vn 0.0000 0.7071 0.7071
vn 0.0000 1.0000 -0.0000
vn 1.0000 0.0000 -0.0000
vn 0.0000 0.0000 1.0000
vn 0.0000 0.0000 -1.0000
vn -1.0000 0.0000 -0.0000
vn 0.0000 0.0000 -0.0000
# 9 vertex normals

vt 0.0000 0.6889 0.0000
vt 0.0000 0.3556 0.0000
vt 0.0222 0.3556 0.0000
vt 0.3333 0.3556 0.0000
vt 0.3333 0.6889 0.0000
vt 0.3111 0.6889 0.0000
vt 0.3111 0.3556 0.0000
vt 0.2889 0.6889 0.0000
vt 0.2889 0.3556 0.0000
vt 0.2667 0.6889 0.0000
vt 0.2667 0.3556 0.0000
vt 0.2444 0.6889 0.0000
vt 0.2444 0.3556 0.0000
vt 0.2222 0.6889 0.0000
vt 0.2222 0.3556 0.0000
vt 0.2000 0.6889 0.0000
vt 0.2000 0.3556 0.0000
vt 0.1778 0.6889 0.0000
vt 0.1778 0.3556 0.0000
vt 0.1556 0.6889 0.0000
vt 0.1556 0.3556 0.0000
vt 0.1333 0.6889 0.0000
vt 0.1333 0.3556 0.0000
vt 0.1111 0.6889 0.0000
vt 0.1111 0.3556 0.0000
vt 0.0889 0.6889 0.0000
vt 0.0889 0.3556 0.0000
vt 0.0444 0.6889 0.0000
vt 0.0444 0.3556 0.0000
vt 0.0222 0.6889 0.0000
vt 0.3111 0.9778 0.0000
vt 0.0222 0.9778 0.0000
vt 0.0667 0.6889 0.0000
vt 0.3778 0.2889 0.0000
vt 0.4000 0.2889 0.0000
vt 0.4000 0.3333 0.0000
vt 0.3778 0.3333 0.0000
vt 0.3556 0.2889 0.0000
vt 0.3556 0.3333 0.0000
vt 0.6444 0.4889 0.0000
vt 0.6889 0.4889 0.0000
vt 0.6889 0.5111 0.0000
vt 0.6222 0.4889 0.0000
vt 0.6000 0.4889 0.0000
vt 0.5778 0.4889 0.0000
vt 0.6889 0.5556 0.0000
vt 0.6889 0.5778 0.0000
vt 0.6444 0.5778 0.0000
vt 0.6889 0.5333 0.0000
vt 0.6222 0.5778 0.0000
vt 0.3778 0.5778 0.0000
vt 0.3556 0.5778 0.0000
vt 0.3556 0.5556 0.0000
vt 0.3556 0.5333 0.0000
vt 0.4000 0.5778 0.0000
vt 0.4222 0.5778 0.0000
vt 0.4444 0.5778 0.0000
vt 0.4667 0.5778 0.0000
vt 0.4889 0.5778 0.0000
vt 0.3556 0.5111 0.0000
vt 0.3556 0.4889 0.0000
vt 0.3778 0.4889 0.0000
vt 0.4000 0.4889 0.0000
vt 0.4222 0.4889 0.0000
vt 0.4444 0.4889 0.0000
vt 0.4667 0.4889 0.0000
vt 0.4889 0.4889 0.0000
vt 0.4889 0.5111 0.0000
vt 0.4889 0.5333 0.0000
vt 0.5111 0.5778 0.0000
vt 0.5111 0.5333 0.0000
vt 0.5333 0.5778 0.0000
vt 0.5333 0.5333 0.0000
vt 0.5556 0.5778 0.0000
vt 0.5778 0.5778 0.0000
vt 0.6000 0.5778 0.0000
vt 0.5333 0.5111 0.0000
vt 0.5333 0.4889 0.0000
vt 0.5556 0.4889 0.0000
vt 0.6889 0.4667 0.0000
vt 0.3556 0.4667 0.0000
vt 0.3556 0.4444 0.0000
vt 0.3556 0.3778 0.0000
vt 0.6889 0.3778 0.0000
vt 0.6889 0.4000 0.0000
vt 0.3556 0.4000 0.0000
vt 0.6889 0.4222 0.0000
vt 0.3556 0.4222 0.0000
vt 0.6889 0.4444 0.0000
vt 0.3111 0.0444 0.0000
vt 0.3333 0.0444 0.0000
vt 0.3333 0.0667 0.0000
vt 0.3333 0.0889 0.0000
vt 0.2889 0.0444 0.0000
vt 0.2667 0.0444 0.0000
vt 0.2444 0.0444 0.0000
vt 0.2222 0.0444 0.0000
vt 0.2000 0.0444 0.0000
vt 0.1778 0.0444 0.0000
vt 0.1556 0.0444 0.0000
vt 0.1333 0.0444 0.0000
vt 0.3333 0.1111 0.0000
vt 0.3333 0.1333 0.0000
vt 0.3111 0.1333 0.0000
vt 0.2889 0.1333 0.0000
vt 0.2667 0.1333 0.0000
vt 0.2444 0.1333 0.0000
vt 0.2222 0.1333 0.0000
vt 0.2000 0.1333 0.0000
vt 0.1778 0.1333 0.0000
vt 0.1556 0.1333 0.0000
vt 0.1333 0.1333 0.0000
vt 0.1111 0.0444 0.0000
vt 0.1111 0.1333 0.0000
vt 0.0889 0.0444 0.0000
vt 0.0889 0.1333 0.0000
vt 0.0667 0.0444 0.0000
vt 0.0667 0.1333 0.0000
vt 0.0222 0.0444 0.0000
vt 0.0222 0.1333 0.0000
vt 0.0000 0.0444 0.0000
vt 0.0000 0.1333 0.0000
vt 0.0000 0.1111 0.0000
vt 0.0000 0.0889 0.0000
vt 0.0000 0.0667 0.0000
vt 0.0000 0.2444 0.0000
vt 0.3333 0.2444 0.0000
vt 0.3333 0.2667 0.0000
vt 0.3333 0.3333 0.0000
vt 0.0000 0.3333 0.0000
vt 0.0000 0.3111 0.0000
vt 0.3333 0.3111 0.0000
vt 0.0000 0.2889 0.0000
vt 0.3333 0.2889 0.0000
vt 0.0000 0.2667 0.0000
vt 0.4222 0.1778 0.0000
vt 0.4222 0.1556 0.0000
vt 0.4444 0.1556 0.0000
vt 0.4444 0.1778 0.0000
vt 0.4222 0.2000 0.0000
vt 0.4444 0.2000 0.0000
vt 0.4222 0.2222 0.0000
vt 0.4444 0.2222 0.0000
vt 0.4222 0.2444 0.0000
vt 0.4444 0.2444 0.0000
vt 0.4222 0.2667 0.0000
vt 0.4444 0.2667 0.0000
vt 0.4222 0.2889 0.0000
vt 0.4444 0.2889 0.0000
vt 0.4222 0.3111 0.0000
vt 0.4444 0.3111 0.0000
vt 0.4222 0.3333 0.0000
vt 0.4667 0.3111 0.0000
vt 0.7556 0.3333 0.0000
vt 0.7333 0.3111 0.0000
vt 0.7556 0.3111 0.0000
vt 0.7556 0.2889 0.0000
vt 0.7333 0.2889 0.0000
vt 0.7556 0.2667 0.0000
vt 0.7333 0.2667 0.0000
vt 0.7556 0.2444 0.0000
vt 0.7333 0.2444 0.0000
vt 0.7556 0.2222 0.0000
vt 0.7333 0.2222 0.0000
vt 0.7556 0.2000 0.0000
vt 0.7333 0.2000 0.0000
vt 0.7556 0.1778 0.0000
vt 0.7333 0.1778 0.0000
vt 0.7556 0.1556 0.0000
vt 0.7333 0.1556 0.0000
vt 0.7556 0.1333 0.0000
vt 0.7333 0.1333 0.0000
vt 0.7556 0.1111 0.0000
vt 0.7333 0.1111 0.0000
vt 0.7556 0.0889 0.0000
vt 0.7333 0.0889 0.0000
vt 0.7556 0.0667 0.0000
vt 0.7333 0.0667 0.0000
vt 0.7556 0.0444 0.0000
vt 0.7333 0.0444 0.0000
vt 0.7556 0.0222 0.0000
vt 0.4222 0.0222 0.0000
vt 0.4667 0.0444 0.0000
vt 0.4222 0.0444 0.0000
vt 0.4444 0.0444 0.0000
vt 0.4222 0.0667 0.0000
vt 0.4444 0.0667 0.0000
vt 0.4222 0.0889 0.0000
vt 0.4444 0.0889 0.0000
vt 0.4222 0.1111 0.0000
vt 0.4444 0.1111 0.0000
vt 0.4222 0.1333 0.0000
vt 0.4444 0.1333 0.0000
vt 0.9816 0.3718 0.0000
vt 0.9816 0.4422 0.0000
vt 0.9778 0.4889 0.0000
vt 0.9778 0.5556 0.0000
vt 0.9556 0.5556 0.0000
vt 0.9556 0.4889 0.0000
vt 0.9111 0.4889 0.0000
vt 0.9111 0.5556 0.0000
vt 0.8889 0.4889 0.0000
vt 0.8889 0.5556 0.0000
vt 0.8667 0.4889 0.0000
vt 0.8667 0.5556 0.0000
vt 0.8444 0.4889 0.0000
vt 0.8444 0.5556 0.0000
vt 0.8222 0.4889 0.0000
vt 0.8222 0.5556 0.0000
vt 0.8000 0.4889 0.0000
vt 0.8000 0.5556 0.0000
vt 0.7778 0.4889 0.0000
vt 0.7778 0.5556 0.0000
vt 0.7556 0.4889 0.0000
vt 0.7556 0.5556 0.0000
vt 0.7333 0.4889 0.0000
vt 0.7333 0.5556 0.0000
vt 0.7111 0.4889 0.0000
vt 0.7111 0.5556 0.0000
vt 0.0804 0.0375 0.0000
vt 0.0100 0.0375 0.0000
vt 0.6444 0.8222 0.0000
vt 0.9333 0.8222 0.0000
vt 0.9333 0.8889 0.0000
vt 0.6444 0.8889 0.0000
vt 0.7002 0.3718 0.0000
vt 0.7002 0.4422 0.0000
vt 0.7556 0.7333 0.0000
vt 0.7556 0.7556 0.0000
vt 0.5778 0.7556 0.0000
vt 0.5778 0.7333 0.0000
vt 0.7556 0.7111 0.0000
vt 0.5778 0.7111 0.0000
vt 0.3333 0.7778 0.0000
vt 0.3333 0.7556 0.0000
vt 0.5111 0.7556 0.0000
vt 0.5111 0.7778 0.0000
vt 0.3333 0.8000 0.0000
vt 0.5111 0.8000 0.0000
vt 0.3333 0.6667 0.0000
vt 0.5111 0.6667 0.0000
vt 0.5111 0.6889 0.0000
vt 0.3333 0.7111 0.0000
vt 0.5111 0.7111 0.0000
vt 0.2444 0.2000 0.0000
vt 0.2444 0.1778 0.0000
vt 0.2444 0.1556 0.0000
vt 0.3333 0.7333 0.0000
vt 0.7556 0.7778 0.0000
vt 0.7556 0.8000 0.0000
vt 0.7556 0.6667 0.0000
vt 0.7556 0.6889 0.0000
vt 0.0000 0.2000 0.0000
vt 0.0000 0.1778 0.0000
vt 0.0000 0.1556 0.0000
vt 0.3333 0.8889 0.0000
vt 0.3333 0.8222 0.0000
vt 0.3556 0.8222 0.0000
vt 0.6000 0.8222 0.0000
vt 0.6222 0.8222 0.0000
vt 0.6222 0.8889 0.0000
vt 0.5778 0.8222 0.0000
vt 0.5556 0.8222 0.0000
vt 0.5111 0.8222 0.0000
vt 0.4889 0.8222 0.0000
vt 0.4667 0.8222 0.0000
vt 0.4444 0.8222 0.0000
vt 0.4222 0.8222 0.0000
vt 0.4000 0.8222 0.0000
vt 0.3778 0.8222 0.0000
# 270 texture coords

g Box001
usemtl 01___Default
s 2
f 1/1/1 2/2/1 3/3/1 
f 4/4/1 5/5/1 6/6/1 
f 7/7/1 4/4/1 6/6/1 
f 7/7/1 6/6/1 8/8/1 
f 9/9/1 7/7/1 8/8/1 
f 9/9/1 8/8/1 10/10/1 
f 11/11/1 9/9/1 10/10/1 
f 11/11/1 10/10/1 12/12/1 
f 13/13/1 11/11/1 12/12/1 
f 13/13/1 12/12/1 14/14/1 
f 15/15/1 13/13/1 14/14/1 
f 15/15/1 14/14/1 16/16/1 
f 17/17/1 15/15/1 16/16/1 
f 17/17/1 16/16/1 18/18/1 
f 19/19/1 17/17/1 18/18/1 
f 19/19/1 18/18/1 20/20/1 
f 21/21/1 19/19/1 20/20/1 
f 21/21/1 20/20/1 22/22/1 
f 23/23/1 21/21/1 22/22/1 
f 23/23/1 22/22/1 24/24/1 
f 25/25/1 23/23/1 24/24/1 
f 25/25/1 24/24/1 26/26/1 
f 27/27/1 25/25/1 26/26/1 
f 27/27/1 26/26/1 28/28/1 
f 29/29/1 27/27/1 28/28/1 
f 29/29/1 28/28/1 30/30/1 
f 3/3/1 29/29/1 30/30/1 
f 1/1/1 3/3/1 30/30/1 
s 4
f 31/6/2 32/31/3 33/32/4 
f 34/8/2 31/6/2 33/32/4 
f 35/10/2 34/8/2 33/32/4 
f 36/12/2 35/10/2 33/32/4 
f 37/14/2 36/12/2 33/32/4 
f 38/16/2 37/14/2 33/32/4 
f 39/18/2 38/16/2 33/32/4 
f 40/22/2 39/18/2 33/32/4 
f 41/24/2 40/22/2 33/32/4 
f 42/26/2 41/24/2 33/32/4 
f 43/33/2 42/26/2 33/32/4 
f 44/28/2 43/33/2 33/32/4 
f 45/30/2 44/28/2 33/32/4 
f 45/30/5 45/30/2 33/32/4 
s 8
f 46/34/6 47/35/6 48/35/6 
f 48/35/6 49/36/6 50/37/6 
f 46/34/6 48/35/6 50/37/6 
f 51/38/6 46/34/6 50/37/6 
f 50/37/6 52/39/6 53/38/6 
f 51/38/6 50/37/6 53/38/6 
f 54/40/6 55/41/6 56/42/6 
f 57/43/6 54/40/6 56/42/6 
f 58/44/6 57/43/6 56/42/6 
f 59/45/6 58/44/6 56/42/6 
f 60/46/6 1/47/6 30/48/6 
f 61/49/6 60/46/6 30/48/6 
f 56/42/6 61/49/6 30/48/6 
f 56/42/6 30/48/6 28/50/6 
f 59/45/6 56/42/6 28/50/6 
f 6/51/6 5/52/6 62/53/6 
f 6/51/6 62/53/6 63/54/6 
f 8/55/6 6/51/6 63/54/6 
f 10/56/6 8/55/6 63/54/6 
f 12/57/6 10/56/6 63/54/6 
f 14/58/6 12/57/6 63/54/6 
f 16/59/6 14/58/6 63/54/6 
f 64/60/6 65/61/6 66/62/6 
f 63/54/6 64/60/6 66/62/6 
f 63/54/6 66/62/6 67/63/6 
f 63/54/6 67/63/6 68/64/6 
f 63/54/6 68/64/6 69/65/6 
f 63/54/6 69/65/6 70/66/6 
f 70/66/6 71/67/6 72/68/6 
f 70/66/6 72/68/6 73/69/6 
f 63/54/6 70/66/6 73/69/6 
f 16/59/6 63/54/6 73/69/6 
f 18/70/6 16/59/6 73/69/6 
f 18/70/6 73/69/6 74/71/6 
f 20/72/6 18/70/6 74/71/6 
f 20/72/6 74/71/6 75/73/6 
f 22/74/6 20/72/6 75/73/6 
f 24/75/6 22/74/6 75/73/6 
f 26/76/6 24/75/6 75/73/6 
f 28/50/6 26/76/6 75/73/6 
f 59/45/6 28/50/6 75/73/6 
f 76/77/6 77/78/6 78/79/6 
f 75/73/6 76/77/6 78/79/6 
f 59/45/6 75/73/6 78/79/6 
s 16
f 5/80/5 4/81/5 79/82/5 
f 80/83/5 65/84/5 64/85/5 
f 81/86/5 80/83/5 64/85/5 
f 81/86/5 64/85/5 63/87/5 
f 82/88/5 81/86/5 63/87/5 
f 82/88/5 63/87/5 62/89/5 
f 79/82/5 82/88/5 62/89/5 
f 5/80/5 79/82/5 62/89/5 
s 32
f 3/90/7 2/91/7 83/92/7 
f 3/90/7 83/92/7 84/93/7 
f 29/94/7 3/90/7 84/93/7 
f 27/95/7 29/94/7 84/93/7 
f 25/96/7 27/95/7 84/93/7 
f 23/97/7 25/96/7 84/93/7 
f 21/98/7 23/97/7 84/93/7 
f 19/99/7 21/98/7 84/93/7 
f 17/100/7 19/99/7 84/93/7 
f 15/101/7 17/100/7 84/93/7 
f 85/102/7 86/103/7 87/104/7 
f 84/93/7 85/102/7 87/104/7 
f 84/93/7 87/104/7 88/105/7 
f 84/93/7 88/105/7 89/106/7 
f 84/93/7 89/106/7 90/107/7 
f 84/93/7 90/107/7 91/108/7 
f 84/93/7 91/108/7 92/109/7 
f 84/93/7 92/109/7 93/110/7 
f 84/93/7 93/110/7 94/111/7 
f 84/93/7 94/111/7 95/112/7 
f 15/101/7 84/93/7 95/112/7 
f 13/113/7 15/101/7 95/112/7 
f 13/113/7 95/112/7 96/114/7 
f 11/115/7 13/113/7 96/114/7 
f 11/115/7 96/114/7 97/116/7 
f 9/117/7 11/115/7 97/116/7 
f 9/117/7 97/116/7 98/118/7 
f 7/119/7 9/117/7 98/118/7 
f 7/119/7 98/118/7 99/120/7 
f 4/121/7 7/119/7 99/120/7 
f 99/120/7 80/122/7 81/123/7 
f 99/120/7 81/123/7 82/124/7 
f 99/120/7 82/124/7 79/125/7 
f 4/121/7 99/120/7 79/125/7 
s 64
f 2/126/8 1/127/8 60/128/8 
f 55/129/8 86/130/8 85/131/8 
f 56/132/8 55/129/8 85/131/8 
f 56/132/8 85/131/8 84/133/8 
f 61/134/8 56/132/8 84/133/8 
f 61/134/8 84/133/8 83/135/8 
f 60/128/8 61/134/8 83/135/8 
f 2/126/8 60/128/8 83/135/8 
s off
f 100/136/4 71/137/4 101/138/4 
f 100/136/4 101/138/4 102/139/4 
f 77/140/4 100/136/4 102/139/4 
f 77/140/4 102/139/4 103/141/4 
f 78/142/4 77/140/4 103/141/4 
f 78/142/4 103/141/4 104/143/4 
f 59/144/4 78/142/4 104/143/4 
f 59/144/4 104/143/4 105/145/4 
f 58/146/4 59/144/4 105/145/4 
f 58/146/4 105/145/4 106/147/4 
f 57/148/4 58/146/4 106/147/4 
f 57/148/4 106/147/4 107/149/4 
f 54/150/4 57/148/4 107/149/4 
f 54/150/4 107/149/4 108/151/4 
f 55/152/4 54/150/4 108/151/4 
f 55/152/9 108/151/9 108/153/9 
f 86/154/4 55/152/4 108/153/4 
f 86/154/4 108/153/4 109/155/4 
f 87/156/4 86/154/4 109/155/4 
f 87/156/9 109/155/9 109/155/9 
f 88/157/4 87/156/4 109/155/4 
f 88/157/4 109/155/4 110/158/4 
f 89/159/4 88/157/4 110/158/4 
f 89/159/4 110/158/4 111/160/4 
f 90/161/4 89/159/4 111/160/4 
f 90/161/4 111/160/4 112/162/4 
f 91/163/4 90/161/4 112/162/4 
f 91/163/4 112/162/4 113/164/4 
f 92/165/4 91/163/4 113/164/4 
f 92/165/4 113/164/4 114/166/4 
f 93/167/4 92/165/4 114/166/4 
f 93/167/4 114/166/4 115/168/4 
f 94/169/4 93/167/4 115/168/4 
f 94/169/4 115/168/4 116/170/4 
f 95/171/4 94/169/4 116/170/4 
f 95/171/4 116/170/4 117/172/4 
f 96/173/4 95/171/4 117/172/4 
f 96/173/4 117/172/4 118/174/4 
f 97/175/4 96/173/4 118/174/4 
f 97/175/4 118/174/4 119/176/4 
f 98/177/4 97/175/4 119/176/4 
f 98/177/4 119/176/4 120/178/4 
f 99/179/4 98/177/4 120/178/4 
f 99/179/4 120/178/4 121/180/4 
f 80/181/4 99/179/4 121/180/4 
f 80/181/9 121/180/9 121/180/9 
f 65/182/4 80/181/4 121/180/4 
f 65/182/4 121/180/4 122/183/4 
f 66/184/4 65/182/4 122/183/4 
f 66/184/9 122/183/9 122/185/9 
f 67/186/4 66/184/4 122/185/4 
f 67/186/4 122/185/4 123/187/4 
f 68/188/4 67/186/4 123/187/4 
f 68/188/4 123/187/4 124/189/4 
f 69/190/4 68/188/4 124/189/4 
f 69/190/4 124/189/4 125/191/4 
f 70/192/4 69/190/4 125/191/4 
f 70/192/4 125/191/4 126/193/4 
f 71/137/4 70/192/4 126/193/4 
f 71/137/4 126/193/4 101/138/4 
f 108/194/9 108/194/9 45/195/9 
f 45/195/9 45/195/9 108/194/9 
s 4
f 122/196/7 31/197/5 31/197/2 
f 122/196/7 31/197/2 34/198/2 
f 123/199/7 122/196/7 34/198/2 
f 124/200/7 123/199/7 34/198/2 
f 124/200/7 34/198/2 35/201/2 
f 125/202/7 124/200/7 35/201/2 
f 125/202/7 35/201/2 36/203/2 
f 126/204/7 125/202/7 36/203/2 
f 126/204/7 36/203/2 37/205/2 
f 101/206/7 126/204/7 37/205/2 
f 101/206/7 37/205/2 38/207/2 
f 102/208/7 101/206/7 38/207/2 
f 102/208/7 38/207/2 39/209/2 
f 103/210/7 102/208/7 39/209/2 
f 103/210/7 39/209/2 40/211/2 
f 104/212/7 103/210/7 40/211/2 
f 104/212/7 40/211/2 41/213/2 
f 105/214/7 104/212/7 41/213/2 
f 105/214/7 41/213/2 42/215/2 
f 106/216/7 105/214/7 42/215/2 
f 106/216/7 42/215/2 43/217/2 
f 107/218/7 106/216/7 43/217/2 
f 107/218/7 43/217/2 44/219/2 
f 108/41/7 107/218/7 44/219/2 
f 108/41/7 44/219/2 45/46/2 
s off
f 122/220/9 122/220/9 31/221/9 
f 31/221/9 31/221/9 122/220/9 
f 122/222/8 121/223/8 32/224/8 
f 32/224/8 31/225/8 122/222/8 
f 109/226/9 109/226/9 33/227/9 
f 33/227/9 33/227/9 109/226/9 
f 109/226/5 108/194/5 45/195/5 
f 45/195/5 33/227/5 109/226/5 
f 76/228/8 75/229/8 127/230/8 
f 76/228/8 127/230/8 128/231/8 
f 77/232/8 76/228/8 128/231/8 
f 77/232/8 128/231/8 129/233/8 
f 74/234/1 73/235/1 130/236/1 
f 74/234/1 130/236/1 131/237/1 
f 75/238/1 74/234/1 131/237/1 
f 75/238/1 131/237/1 127/239/1 
f 72/5/5 71/240/5 132/241/5 
f 72/5/5 132/241/5 133/242/5 
f 73/243/5 72/5/5 133/242/5 
f 73/243/5 133/242/5 130/244/5 
f 100/136/4 77/140/4 129/245/4 
f 100/136/4 129/245/4 134/246/4 
f 71/137/4 100/136/4 134/246/4 
f 71/137/4 134/246/4 132/247/4 
f 128/231/8 127/230/8 51/235/8 
f 128/231/8 51/235/8 53/248/8 
f 129/233/8 128/231/8 53/248/8 
f 129/233/8 53/248/8 52/243/8 
f 131/237/1 130/236/1 47/229/1 
f 131/237/1 47/229/1 46/249/1 
f 127/239/1 131/237/1 46/249/1 
f 127/239/1 46/249/1 51/250/1 
f 133/242/5 132/241/5 49/251/5 
f 133/242/5 49/251/5 48/252/5 
f 130/244/5 133/242/5 48/252/5 
f 130/244/5 48/252/5 47/232/5 
f 134/246/4 129/245/4 52/253/4 
f 134/246/4 52/253/4 50/254/4 
f 132/247/4 134/246/4 50/254/4 
f 132/247/4 50/254/4 49/255/4 
s 4
f 32/256/3 121/257/5 121/257/6 
f 32/256/3 121/257/6 120/258/6 
f 110/259/6 109/260/6 33/261/6 
f 111/262/6 110/259/6 33/261/6 
f 112/263/6 111/262/6 33/261/6 
f 113/264/6 112/263/6 33/261/6 
f 114/265/6 113/264/6 33/261/6 
f 115/266/6 114/265/6 33/261/6 
f 116/267/6 115/266/6 33/261/6 
f 117/268/6 116/267/6 33/261/6 
f 118/269/6 117/268/6 33/261/6 
f 119/270/6 118/269/6 33/261/6 
f 120/258/6 119/270/6 33/261/6 
f 32/256/3 120/258/6 33/261/6 
f 32/256/3 33/261/6 33/261/4 
# 278 faces

