# 3ds Max Wavefront OBJ Exporter v0.97b - (c)2007 guruware
# File Created: 13.12.2014 16:01:56

mtllib Grill_Legs.mtl

#
# object Box001
#

v  -7.5000 0.0000 7.5000
v  -7.5000 0.0000 6.5000
v  -6.5000 0.0000 6.5000
v  -6.5000 0.0000 7.5000
v  6.5000 0.0000 7.5000
v  6.5000 0.0000 6.5000
v  7.5000 0.0000 6.5000
v  7.5000 0.0000 7.5000
v  -7.5000 0.0000 -6.5000
v  -7.5000 0.0000 -7.5000
v  -6.5000 0.0000 -7.5000
v  -6.5000 0.0000 -6.5000
v  6.5000 0.0000 -6.5000
v  6.5000 0.0000 -7.5000
v  7.5000 0.0000 -7.5000
v  7.5000 0.0000 -6.5000
v  -7.5000 15.0000 7.5000
v  -6.5000 15.0000 7.5000
v  -6.5000 15.0000 6.5000
v  -7.5000 15.0000 6.5000
v  6.5000 15.0000 7.5000
v  7.5000 15.0000 7.5000
v  7.5000 15.0000 6.5000
v  6.5000 15.0000 6.5000
v  -7.5000 15.0000 -6.5000
v  -6.5000 15.0000 -6.5000
v  -6.5000 15.0000 -7.5000
v  -7.5000 15.0000 -7.5000
v  6.5000 15.0000 -6.5000
v  7.5000 15.0000 -6.5000
v  7.5000 15.0000 -7.5000
v  6.5000 15.0000 -7.5000
# 32 vertices

vn 0.0000 -1.0000 -0.0000
vn 0.0000 1.0000 -0.0000
vn 0.0000 0.0000 1.0000
vn 1.0000 0.0000 -0.0000
vn 0.0000 0.0000 -1.0000
vn -1.0000 0.0000 -0.0000
# 6 vertex normals

vt 1.0000 0.0000 0.0000
vt 1.0000 0.0667 0.0000
vt 0.9333 0.0667 0.0000
vt 0.9333 0.0000 0.0000
vt 0.0667 0.0000 0.0000
vt 0.0667 0.0667 0.0000
vt 0.0000 0.0667 0.0000
vt 0.0000 0.0000 0.0000
vt 1.0000 0.9333 0.0000
vt 1.0000 1.0000 0.0000
vt 0.9333 1.0000 0.0000
vt 0.9333 0.9333 0.0000
vt 0.0667 0.9333 0.0000
vt 0.0667 1.0000 0.0000
vt 0.0000 1.0000 0.0000
vt 0.0000 0.9333 0.0000
# 16 texture coords

g Box001
usemtl 08___Default
s 2
f 1/1/1 2/2/1 3/3/1 
f 3/3/1 4/4/1 1/1/1 
f 5/5/1 6/6/1 7/7/1 
f 7/7/1 8/8/1 5/5/1 
f 9/9/1 10/10/1 11/11/1 
f 11/11/1 12/12/1 9/9/1 
f 13/13/1 14/14/1 15/15/1 
f 15/15/1 16/16/1 13/13/1 
s 4
f 17/8/2 18/5/2 19/6/2 
f 19/6/2 20/7/2 17/8/2 
f 21/4/2 22/1/2 23/2/2 
f 23/2/2 24/3/2 21/4/2 
f 25/16/2 26/13/2 27/14/2 
f 27/14/2 28/15/2 25/16/2 
f 29/12/2 30/9/2 31/10/2 
f 31/10/2 32/11/2 29/12/2 
s 8
f 1/8/3 4/5/3 18/14/3 
f 18/14/3 17/15/3 1/8/3 
f 5/4/3 8/1/3 22/10/3 
f 22/10/3 21/11/3 5/4/3 
s 16
f 8/8/4 7/5/4 23/14/4 
f 23/14/4 22/15/4 8/8/4 
f 16/4/4 15/1/4 31/10/4 
f 31/10/4 30/11/4 16/4/4 
s 32
f 15/8/5 14/5/5 32/14/5 
f 32/14/5 31/15/5 15/8/5 
f 11/4/5 10/1/5 28/10/5 
f 28/10/5 27/11/5 11/4/5 
s 64
f 10/8/6 9/5/6 25/14/6 
f 25/14/6 28/15/6 10/8/6 
f 2/4/6 1/1/6 17/10/6 
f 17/10/6 20/11/6 2/4/6 
s off
f 19/6/4 18/5/4 4/5/4 
f 4/5/4 3/6/4 19/6/4 
f 21/4/6 24/3/6 6/3/6 
f 6/3/6 5/4/6 21/4/6 
f 24/3/5 23/2/5 7/2/5 
f 7/2/5 6/3/5 24/3/5 
f 30/9/3 29/12/3 13/12/3 
f 13/12/3 16/9/3 30/9/3 
f 29/12/6 32/11/6 14/11/6 
f 14/11/6 13/12/6 29/12/6 
f 27/14/4 26/13/4 12/13/4 
f 12/13/4 11/14/4 27/14/4 
f 26/13/3 25/16/3 9/16/3 
f 9/16/3 12/13/3 26/13/3 
f 20/7/5 19/6/5 3/6/5 
f 3/6/5 2/7/5 20/7/5 
# 48 faces

