# 3ds Max Wavefront OBJ Exporter v0.97b - (c)2007 guruware
# File Created: 13.12.2014 20:29:10

mtllib Grill.mtl

#
# object Box001
#

v  -7.5000 -1.0000 7.5000
v  -7.5000 -1.0000 6.5000
v  -6.5000 -1.0000 6.5000
v  -6.5000 -1.0000 7.5000
v  -6.5000 0.0000 7.5000
v  -6.5000 0.0000 6.5000
v  6.5000 0.0000 6.5000
v  6.5000 0.0000 7.5000
v  6.5000 -1.0000 7.5000
v  6.5000 -1.0000 6.5000
v  7.5000 -1.0000 6.5000
v  7.5000 -1.0000 7.5000
v  -7.5000 0.0000 -6.5000
v  -6.5000 0.0000 -6.5000
v  -6.5000 0.0000 -5.5000
v  -6.5000 0.0000 5.5000
v  -7.5000 0.0000 5.5000
v  -7.5000 0.0000 6.5000
v  6.5000 0.0000 -5.5000
v  6.5000 0.0000 -6.5000
v  7.5000 0.0000 -6.5000
v  7.5000 0.0000 -5.5000
v  6.5000 0.0000 5.5000
v  7.5000 0.0000 5.5000
v  7.5000 0.0000 6.5000
v  -6.5000 1.0000 5.5000
v  -6.5000 1.0000 4.5000
v  6.5000 1.0000 4.5000
v  6.5000 1.0000 5.5000
v  -6.5000 1.0000 3.5000
v  -6.5000 1.0000 2.5000
v  6.5000 1.0000 2.5000
v  6.5000 1.0000 3.5000
v  -6.5000 1.0000 1.5000
v  -6.5000 1.0000 0.5000
v  6.5000 1.0000 0.5000
v  6.5000 1.0000 1.5000
v  -6.5000 1.0000 -0.5000
v  -6.5000 1.0000 -1.5000
v  6.5000 1.0000 -1.5000
v  6.5000 1.0000 -0.5000
v  -6.5000 1.0000 -2.5000
v  -6.5000 1.0000 -3.5000
v  6.5000 1.0000 -3.5000
v  6.5000 1.0000 -2.5000
v  -6.5000 1.0000 -4.5000
v  -6.5000 1.0000 -5.5000
v  6.5000 1.0000 -5.5000
v  6.5000 1.0000 -4.5000
v  -7.5000 -1.0000 -6.5000
v  -7.5000 -1.0000 -7.5000
v  -6.5000 -1.0000 -7.5000
v  -6.5000 -1.0000 -6.5000
v  -6.5000 0.0000 -7.5000
v  6.5000 0.0000 -7.5000
v  6.5000 -1.0000 -6.5000
v  6.5000 -1.0000 -7.5000
v  7.5000 -1.0000 -7.5000
v  7.5000 -1.0000 -6.5000
v  7.5000 2.0000 7.5000
v  7.5000 2.0000 6.5000
v  -7.5000 2.0000 6.5000
v  -7.5000 2.0000 7.5000
v  -7.5000 1.0000 6.5000
v  -6.5000 1.0000 6.5000
v  -7.5000 1.0000 5.5000
v  6.5000 1.0000 6.5000
v  7.5000 1.0000 6.5000
v  7.5000 1.0000 5.5000
v  7.5000 2.0000 5.5000
v  7.5000 2.0000 4.5000
v  -7.5000 2.0000 4.5000
v  -7.5000 2.0000 5.5000
v  -7.5000 1.0000 4.5000
v  -7.5000 1.0000 3.5000
v  7.5000 1.0000 4.5000
v  7.5000 1.0000 3.5000
v  7.5000 2.0000 3.5000
v  7.5000 2.0000 2.5000
v  -7.5000 2.0000 2.5000
v  -7.5000 2.0000 3.5000
v  -7.5000 1.0000 2.5000
v  -7.5000 1.0000 1.5000
v  7.5000 1.0000 2.5000
v  7.5000 1.0000 1.5000
v  7.5000 2.0000 1.5000
v  7.5000 2.0000 0.5000
v  -7.5000 2.0000 0.5000
v  -7.5000 2.0000 1.5000
v  -7.5000 1.0000 0.5000
v  -7.5000 1.0000 -0.5000
v  7.5000 1.0000 0.5000
v  7.5000 1.0000 -0.5000
v  7.5000 2.0000 -0.5000
v  7.5000 2.0000 -1.5000
v  -7.5000 2.0000 -1.5000
v  -7.5000 2.0000 -0.5000
v  -7.5000 1.0000 -1.5000
v  -7.5000 1.0000 -2.5000
v  7.5000 1.0000 -1.5000
v  7.5000 1.0000 -2.5000
v  7.5000 2.0000 -2.5000
v  7.5000 2.0000 -3.5000
v  -7.5000 2.0000 -3.5000
v  -7.5000 2.0000 -2.5000
v  -7.5000 1.0000 -3.5000
v  -7.5000 1.0000 -4.5000
v  7.5000 1.0000 -3.5000
v  7.5000 1.0000 -4.5000
v  7.5000 2.0000 -4.5000
v  7.5000 2.0000 -5.5000
v  -7.5000 2.0000 -5.5000
v  -7.5000 2.0000 -4.5000
v  -7.5000 1.0000 -5.5000
v  -6.5000 1.0000 -6.5000
v  -7.5000 1.0000 -6.5000
v  7.5000 1.0000 -5.5000
v  7.5000 1.0000 -6.5000
v  6.5000 1.0000 -6.5000
v  7.5000 2.0000 -6.5000
v  7.5000 2.0000 -7.5000
v  -7.5000 2.0000 -7.5000
v  -7.5000 2.0000 -6.5000
# 123 vertices

vn 0.0000 -1.0000 -0.0000
vn 0.0000 1.0000 -0.0000
vn 0.0000 0.0000 1.0000
vn 1.0000 0.0000 -0.0000
vn 0.0000 0.0000 -1.0000
vn -1.0000 0.0000 -0.0000
# 6 vertex normals

vt 0.7000 0.5000 0.0000
vt 0.7000 0.4750 0.0000
vt 0.7250 0.4750 0.0000
vt 0.7250 0.5000 0.0000
vt 0.3250 0.6500 0.0000
vt 0.3250 0.6750 0.0000
vt 0.0000 0.6750 0.0000
vt 0.0000 0.6500 0.0000
vt 0.7000 0.5500 0.0000
vt 0.7000 0.5250 0.0000
vt 0.7250 0.5250 0.0000
vt 0.7250 0.5500 0.0000
vt -0.0000 0.7000 0.0000
vt -0.0000 0.6750 0.0000
vt 0.0250 0.6750 0.0000
vt 0.2750 0.6750 0.0000
vt 0.2750 0.7000 0.0000
vt 0.3250 0.7000 0.0000
vt 0.0250 0.6250 0.0000
vt 0.0000 0.6250 0.0000
vt 0.0000 0.6000 0.0000
vt 0.0250 0.6000 0.0000
vt 0.3000 0.6250 0.0000
vt 0.3000 0.6000 0.0000
vt 0.3250 0.6250 0.0000
vt 0.3250 0.6000 0.0000
vt 0.3750 0.5500 0.0000
vt 0.3750 0.5250 0.0000
vt 0.7000 0.5750 0.0000
vt 0.3750 0.5750 0.0000
vt 0.7000 0.6000 0.0000
vt 0.3750 0.6000 0.0000
vt 0.7000 0.6250 0.0000
vt 0.7000 0.6500 0.0000
vt 0.3750 0.6500 0.0000
vt 0.3750 0.6250 0.0000
vt -0.0000 0.6500 0.0000
vt -0.0000 0.6250 0.0000
vt 0.7250 0.6000 0.0000
vt 0.7250 0.5750 0.0000
vt 0.7500 0.5750 0.0000
vt 0.7500 0.6000 0.0000
vt 0.3250 0.5750 0.0000
vt 0.0000 0.5750 0.0000
vt 0.3500 0.6250 0.0000
vt 0.3500 0.6000 0.0000
vt 0.0000 0.4250 0.0000
vt 0.0000 0.4000 0.0000
vt 0.3750 0.4000 0.0000
vt 0.3750 0.4250 0.0000
vt 0.7500 0.4750 0.0000
vt 0.7750 0.4750 0.0000
vt 0.7750 0.5000 0.0000
vt 0.7500 0.5000 0.0000
vt 0.7500 0.4500 0.0000
vt 0.7750 0.4500 0.0000
vt -0.0000 0.5500 0.0000
vt -0.0000 0.5250 0.0000
vt 0.7750 0.0250 0.0000
vt 0.8000 0.0250 0.0000
vt 0.8000 0.0500 0.0000
vt 0.7750 0.0500 0.0000
vt 0.7500 0.5250 0.0000
vt 0.7500 0.5500 0.0000
vt 0.3750 0.3250 0.0000
vt 0.3750 0.3000 0.0000
vt 0.7500 0.3000 0.0000
vt 0.7500 0.3250 0.0000
vt 0.7500 0.0250 0.0000
vt 0.7500 0.0500 0.0000
vt 0.7500 0.2250 0.0000
vt 0.7750 0.2250 0.0000
vt 0.7750 0.2500 0.0000
vt 0.7500 0.2500 0.0000
vt 0.3750 0.2500 0.0000
vt 0.3750 0.2250 0.0000
vt 0.7750 0.5250 0.0000
vt 0.7750 0.5500 0.0000
vt 0.3750 0.2000 0.0000
vt 0.7500 0.2000 0.0000
vt 0.7750 0.0750 0.0000
vt 0.7500 0.0750 0.0000
vt 0.0000 0.3750 0.0000
vt 0.3750 0.3750 0.0000
vt 0.7500 0.1250 0.0000
vt 0.7750 0.1250 0.0000
vt 0.7750 0.1500 0.0000
vt 0.7500 0.1500 0.0000
vt 0.7750 0.1000 0.0000
vt 0.8000 0.1000 0.0000
vt 0.8000 0.1250 0.0000
vt 0.3750 0.2750 0.0000
vt 0.7500 0.2750 0.0000
vt 0.3500 0.5750 0.0000
vt 0.3750 0.4750 0.0000
vt 0.3750 0.4500 0.0000
vt 0.3500 0.2750 0.0000
vt 0.3500 0.2500 0.0000
vt 0.0250 0.2500 0.0000
vt 0.0250 0.2750 0.0000
vt 0.0000 0.2750 0.0000
vt 0.0000 0.2000 0.0000
vt 0.3750 0.1000 0.0000
vt 0.3500 0.1000 0.0000
vt 0.3500 0.0750 0.0000
vt 0.0250 0.0750 0.0000
vt 0.0250 0.1000 0.0000
vt 0.0000 0.1000 0.0000
vt 0.0000 0.0250 0.0000
vt 0.0250 0.0250 0.0000
vt 0.0250 0.0500 0.0000
vt 0.0500 0.0750 0.0000
vt 0.0500 0.0500 0.0000
vt 0.0500 0.0250 0.0000
vt 0.0750 0.0250 0.0000
vt 0.0750 0.0500 0.0000
vt 0.1000 0.0500 0.0000
vt 0.1000 0.0250 0.0000
vt 0.1250 0.0250 0.0000
vt 0.1250 0.0500 0.0000
vt 0.1500 0.0500 0.0000
vt 0.1500 0.0250 0.0000
vt 0.1750 0.0250 0.0000
vt 0.1750 0.0500 0.0000
vt 0.2000 0.0500 0.0000
vt 0.2000 0.0250 0.0000
vt 0.2250 0.0250 0.0000
vt 0.2250 0.0500 0.0000
vt 0.2500 0.0500 0.0000
vt 0.2500 0.0250 0.0000
vt 0.2750 0.0250 0.0000
vt 0.2750 0.0500 0.0000
vt 0.3000 0.0500 0.0000
vt 0.3250 0.0750 0.0000
vt 0.3000 0.0250 0.0000
vt 0.3250 0.0250 0.0000
vt 0.3250 0.0500 0.0000
vt 0.3500 0.0500 0.0000
vt 0.3500 0.0250 0.0000
vt 0.3750 0.0250 0.0000
vt 0.4000 0.2750 0.0000
vt 0.7250 0.2750 0.0000
vt 0.4000 0.3750 0.0000
vt 0.3750 0.3500 0.0000
vt 0.7250 0.3750 0.0000
vt 0.7500 0.3750 0.0000
vt 0.7500 0.3500 0.0000
vt 0.4000 0.3500 0.0000
vt 0.7250 0.3500 0.0000
vt 0.0250 0.3750 0.0000
vt 0.0000 0.3500 0.0000
vt 0.3500 0.3750 0.0000
vt 0.4000 0.4250 0.0000
vt 0.7250 0.4250 0.0000
vt 0.7500 0.4250 0.0000
vt 0.7500 0.4000 0.0000
vt 0.0250 0.4500 0.0000
vt 0.0000 0.4500 0.0000
vt 0.3500 0.4500 0.0000
vt 0.4000 0.4500 0.0000
vt 0.7250 0.4500 0.0000
vt 0.0250 0.5250 0.0000
vt 0.0000 0.5250 0.0000
vt 0.0000 0.5000 0.0000
vt 0.3500 0.5250 0.0000
vt 0.3750 0.5000 0.0000
vt 0.0250 0.5000 0.0000
vt 0.0000 0.4750 0.0000
vt 0.3500 0.5000 0.0000
vt 0.0250 0.5750 0.0000
vt 0.0000 0.5500 0.0000
vt 0.0250 0.4750 0.0000
vt 0.3500 0.4750 0.0000
vt 0.4000 0.4000 0.0000
vt 0.7250 0.4000 0.0000
vt 0.7500 0.1000 0.0000
vt 0.7250 0.1000 0.0000
vt 0.7250 0.0750 0.0000
vt 0.4000 0.0750 0.0000
vt 0.4000 0.1000 0.0000
vt 0.0250 0.1250 0.0000
vt 0.0500 0.1000 0.0000
vt 0.0750 0.1000 0.0000
vt 0.0750 0.1250 0.0000
vt 0.0500 0.1250 0.0000
vt 0.1000 0.1000 0.0000
vt 0.1250 0.1000 0.0000
vt 0.1250 0.1250 0.0000
vt 0.1000 0.1250 0.0000
vt 0.1500 0.1000 0.0000
vt 0.1750 0.1000 0.0000
vt 0.1750 0.1250 0.0000
vt 0.1500 0.1250 0.0000
vt 0.2000 0.1000 0.0000
vt 0.2250 0.1000 0.0000
vt 0.2250 0.1250 0.0000
vt 0.2000 0.1250 0.0000
vt 0.2500 0.1000 0.0000
vt 0.2750 0.1000 0.0000
vt 0.2750 0.1250 0.0000
vt 0.2500 0.1250 0.0000
vt 0.3000 0.1000 0.0000
vt 0.3250 0.1000 0.0000
vt 0.3250 0.1250 0.0000
vt 0.3000 0.1250 0.0000
vt 0.3500 0.1250 0.0000
vt 0.3750 0.1750 0.0000
vt 0.3500 0.1750 0.0000
vt 0.3500 0.1500 0.0000
vt 0.0500 0.1500 0.0000
vt 0.0250 0.1500 0.0000
vt 0.0250 0.1750 0.0000
vt 0.0000 0.1750 0.0000
vt 0.7750 0.3750 0.0000
vt 0.7750 0.3500 0.0000
vt 0.7750 0.2000 0.0000
vt 0.7750 0.6000 0.0000
vt 0.7750 0.5750 0.0000
vt 0.8000 0.2250 0.0000
vt 0.8000 0.2000 0.0000
vt 0.7750 0.3000 0.0000
vt 0.7750 0.2750 0.0000
vt 0.7750 0.4250 0.0000
vt 0.7750 0.4000 0.0000
vt 0.0250 0.3000 0.0000
vt 0.0000 0.3000 0.0000
vt 0.3500 0.3000 0.0000
vt 0.3500 0.3250 0.0000
vt 0.0250 0.3250 0.0000
vt 0.4000 0.1250 0.0000
vt 0.3750 0.1250 0.0000
vt 0.7250 0.1250 0.0000
vt 0.7250 0.1500 0.0000
vt 0.4000 0.1500 0.0000
vt 0.4000 0.5250 0.0000
vt 0.4000 0.5000 0.0000
vt 0.4250 0.5000 0.0000
vt 0.6750 0.5250 0.0000
vt 0.4500 0.5000 0.0000
vt 0.4750 0.5000 0.0000
vt 0.5000 0.5000 0.0000
vt 0.5250 0.5000 0.0000
vt 0.5500 0.5000 0.0000
vt 0.5750 0.5000 0.0000
vt 0.6000 0.5000 0.0000
vt 0.6250 0.5000 0.0000
vt 0.6500 0.5000 0.0000
vt 0.6750 0.5000 0.0000
vt 0.4000 0.4750 0.0000
vt 0.4250 0.4750 0.0000
vt 0.4500 0.4750 0.0000
vt 0.4750 0.4750 0.0000
vt 0.5000 0.4750 0.0000
vt 0.5250 0.4750 0.0000
vt 0.5500 0.4750 0.0000
vt 0.5750 0.4750 0.0000
vt 0.6000 0.4750 0.0000
vt 0.6250 0.4750 0.0000
vt 0.6750 0.4750 0.0000
vt 0.6500 0.4750 0.0000
# 260 texture coords

g Box001
usemtl 07___Default
s 2
f 1/1/1 2/2/1 3/3/1 
f 3/3/1 4/4/1 1/1/1 
f 5/5/1 6/6/1 7/7/1 
f 7/7/1 8/8/1 5/5/1 
f 9/9/1 10/10/1 11/11/1 
f 11/11/1 12/12/1 9/9/1 
f 13/13/1 14/14/1 15/15/1 
f 13/13/1 15/15/1 16/16/1 
f 17/17/1 13/13/1 16/16/1 
f 18/18/1 17/17/1 16/16/1 
f 18/18/1 16/16/1 6/6/1 
f 19/19/1 20/20/1 21/21/1 
f 19/19/1 21/21/1 22/22/1 
f 23/23/1 19/19/1 22/22/1 
f 23/23/1 22/22/1 24/24/1 
f 7/25/1 23/23/1 24/24/1 
f 7/25/1 24/24/1 25/26/1 
f 26/10/1 27/9/1 28/27/1 
f 28/27/1 29/28/1 26/10/1 
f 30/9/1 31/29/1 32/30/1 
f 32/30/1 33/27/1 30/9/1 
f 34/29/1 35/31/1 36/32/1 
f 36/32/1 37/30/1 34/29/1 
f 38/33/1 39/34/1 40/35/1 
f 40/35/1 41/36/1 38/33/1 
f 42/31/1 43/33/1 44/36/1 
f 44/36/1 45/32/1 42/31/1 
f 46/25/1 47/5/1 48/37/1 
f 48/37/1 49/38/1 46/25/1 
f 50/39/1 51/40/1 52/41/1 
f 52/41/1 53/42/1 50/39/1 
f 14/43/1 54/26/1 55/21/1 
f 55/21/1 20/44/1 14/43/1 
f 56/45/1 57/46/1 58/32/1 
f 58/32/1 59/36/1 56/45/1 
s 4
f 60/47/2 61/48/2 62/49/2 
f 62/49/2 63/50/2 60/47/2 
f 64/51/2 65/52/2 26/53/2 
f 26/53/2 66/54/2 64/51/2 
f 67/55/2 68/56/2 69/52/2 
f 69/52/2 29/51/2 67/55/2 
f 70/57/2 71/58/2 72/28/2 
f 72/28/2 73/27/2 70/57/2 
f 74/59/2 27/60/2 30/61/2 
f 30/61/2 75/62/2 74/59/2 
f 28/11/2 76/63/2 77/64/2 
f 77/64/2 33/12/2 28/11/2 
f 78/65/2 79/66/2 80/67/2 
f 80/67/2 81/68/2 78/65/2 
f 82/69/2 31/59/2 34/62/2 
f 34/62/2 83/70/2 82/69/2 
f 32/71/2 84/72/2 85/73/2 
f 85/73/2 37/74/2 32/71/2 
f 86/75/2 87/76/2 88/71/2 
f 88/71/2 89/74/2 86/75/2 
f 90/29/2 35/40/2 38/39/2 
f 38/39/2 91/31/2 90/29/2 
f 36/63/2 92/77/2 93/78/2 
f 93/78/2 41/64/2 36/63/2 
f 94/76/2 95/79/2 96/80/2 
f 96/80/2 97/71/2 94/76/2 
f 98/26/2 39/46/2 42/45/2 
f 42/45/2 99/25/2 98/26/2 
f 40/70/2 100/62/2 101/81/2 
f 101/81/2 45/82/2 40/70/2 
f 102/48/2 103/83/2 104/84/2 
f 104/84/2 105/49/2 102/48/2 
f 106/85/2 43/86/2 46/87/2 
f 46/87/2 107/88/2 106/85/2 
f 44/89/2 108/90/2 109/91/2 
f 109/91/2 49/86/2 44/89/2 
f 110/66/2 111/92/2 112/93/2 
f 112/93/2 113/67/2 110/66/2 
f 114/94/2 47/30/2 115/32/2 
f 115/32/2 116/46/2 114/94/2 
f 48/43/2 117/94/2 118/46/2 
f 118/46/2 119/26/2 48/43/2 
f 120/95/2 121/96/2 122/55/2 
f 122/55/2 123/51/2 120/95/2 
s 8
f 1/92/3 4/97/3 5/98/3 
f 8/99/3 9/100/3 12/101/3 
f 8/99/3 12/101/3 60/102/3 
f 5/98/3 8/99/3 60/102/3 
f 5/98/3 60/102/3 63/79/3 
f 1/92/3 5/98/3 63/79/3 
s 16
f 12/103/4 11/104/4 25/105/4 
f 21/106/4 59/107/4 58/108/4 
f 21/106/4 58/108/4 121/109/4 
f 121/109/4 120/110/4 118/111/4 
f 21/106/4 121/109/4 118/111/4 
f 22/112/4 21/106/4 118/111/4 
f 22/112/4 118/111/4 117/113/4 
f 111/114/4 110/115/4 109/116/4 
f 117/113/4 111/114/4 109/116/4 
f 22/112/4 117/113/4 109/116/4 
f 22/112/4 109/116/4 108/117/4 
f 103/118/4 102/119/4 101/120/4 
f 108/117/4 103/118/4 101/120/4 
f 22/112/4 108/117/4 101/120/4 
f 22/112/4 101/120/4 100/121/4 
f 95/122/4 94/123/4 93/124/4 
f 100/121/4 95/122/4 93/124/4 
f 22/112/4 100/121/4 93/124/4 
f 22/112/4 93/124/4 92/125/4 
f 87/126/4 86/127/4 85/128/4 
f 92/125/4 87/126/4 85/128/4 
f 22/112/4 92/125/4 85/128/4 
f 22/112/4 85/128/4 84/129/4 
f 79/130/4 78/131/4 77/132/4 
f 84/129/4 79/130/4 77/132/4 
f 22/112/4 84/129/4 77/132/4 
f 22/112/4 77/132/4 76/133/4 
f 24/134/4 22/112/4 76/133/4 
f 71/135/4 70/136/4 69/137/4 
f 76/133/4 71/135/4 69/137/4 
f 24/134/4 76/133/4 69/137/4 
f 25/105/4 24/134/4 69/137/4 
f 25/105/4 69/137/4 68/138/4 
f 12/103/4 25/105/4 68/138/4 
f 68/138/4 61/139/4 60/140/4 
f 12/103/4 68/138/4 60/140/4 
s off
f 29/141/3 69/92/3 70/75/3 
f 26/142/3 29/141/3 70/75/3 
f 66/93/3 26/142/3 70/75/3 
f 66/93/3 70/75/3 73/74/3 
f 27/143/5 74/84/5 72/144/5 
f 28/145/5 27/143/5 72/144/5 
f 76/146/5 28/145/5 72/144/5 
f 76/146/5 72/144/5 71/147/5 
f 33/148/3 77/144/3 78/65/3 
f 30/149/3 33/148/3 78/65/3 
f 75/147/3 30/149/3 78/65/3 
f 75/147/3 78/65/3 81/68/3 
f 31/150/5 82/83/5 80/151/5 
f 32/152/5 31/150/5 80/151/5 
f 84/84/5 32/152/5 80/151/5 
f 84/84/5 80/151/5 79/144/5 
f 37/153/3 85/50/3 86/49/3 
f 34/154/3 37/153/3 86/49/3 
f 83/155/3 34/154/3 86/49/3 
f 83/155/3 86/49/3 89/156/3 
f 35/157/5 90/158/5 88/47/5 
f 36/159/5 35/157/5 88/47/5 
f 92/96/5 36/159/5 88/47/5 
f 92/96/5 88/47/5 87/50/5 
f 41/160/3 93/96/3 94/50/3 
f 38/161/3 41/160/3 94/50/3 
f 91/55/3 38/161/3 94/50/3 
f 91/55/3 94/50/3 97/155/3 
f 39/162/5 98/163/5 96/164/5 
f 40/165/5 39/162/5 96/164/5 
f 100/28/5 40/165/5 96/164/5 
f 100/28/5 96/164/5 95/166/5 
f 45/167/3 101/164/3 102/168/3 
f 42/169/3 45/167/3 102/168/3 
f 99/166/3 42/169/3 102/168/3 
f 99/166/3 102/168/3 105/95/3 
f 43/170/5 106/44/5 104/171/5 
f 44/94/5 43/170/5 104/171/5 
f 108/30/5 44/94/5 104/171/5 
f 108/30/5 104/171/5 103/27/5 
f 49/172/3 109/168/3 110/158/3 
f 46/173/3 49/172/3 110/158/3 
f 107/95/3 46/173/3 110/158/3 
f 107/95/3 110/158/3 113/96/3 
f 47/174/5 114/49/5 112/84/5 
f 48/175/5 47/174/5 112/84/5 
f 117/156/5 48/175/5 112/84/5 
f 117/156/5 112/84/5 111/146/5 
s 32
f 58/176/5 57/177/5 55/178/5 
f 54/179/5 52/180/5 51/103/5 
f 54/179/5 51/103/5 122/140/5 
f 55/178/5 54/179/5 122/140/5 
f 55/178/5 122/140/5 121/69/5 
f 58/176/5 55/178/5 121/69/5 
s 64
f 63/108/6 62/107/6 64/181/6 
f 73/182/6 72/183/6 74/184/6 
f 66/185/6 73/182/6 74/184/6 
f 81/186/6 80/187/6 82/188/6 
f 75/189/6 81/186/6 82/188/6 
f 89/190/6 88/191/6 90/192/6 
f 83/193/6 89/190/6 90/192/6 
f 97/194/6 96/195/6 98/196/6 
f 91/197/6 97/194/6 98/196/6 
f 105/198/6 104/199/6 106/200/6 
f 99/201/6 105/198/6 106/200/6 
f 113/202/6 112/203/6 114/204/6 
f 107/205/6 113/202/6 114/204/6 
f 116/206/6 123/104/6 122/103/6 
f 116/206/6 122/103/6 51/207/6 
f 51/207/6 50/208/6 13/209/6 
f 116/206/6 51/207/6 13/209/6 
f 114/204/6 116/206/6 13/209/6 
f 107/205/6 114/204/6 13/209/6 
f 106/200/6 107/205/6 13/209/6 
f 99/201/6 106/200/6 13/209/6 
f 98/196/6 99/201/6 13/209/6 
f 91/197/6 98/196/6 13/209/6 
f 90/192/6 91/197/6 13/209/6 
f 83/193/6 90/192/6 13/209/6 
f 82/188/6 83/193/6 13/209/6 
f 75/189/6 82/188/6 13/209/6 
f 74/184/6 75/189/6 13/209/6 
f 66/185/6 74/184/6 13/209/6 
f 66/185/6 13/209/6 17/210/6 
f 64/181/6 66/185/6 17/210/6 
f 64/181/6 17/210/6 18/211/6 
f 63/108/6 64/181/6 18/211/6 
f 18/211/6 2/212/6 1/213/6 
f 63/108/6 18/211/6 1/213/6 
s off
f 18/214/5 6/146/5 3/147/5 
f 3/147/5 2/215/5 18/214/5 
f 6/86/4 5/85/4 4/176/4 
f 4/176/4 3/89/4 6/86/4 
f 8/54/6 7/4/6 10/3/6 
f 10/3/6 9/51/6 8/54/6 
f 7/72/5 25/71/5 11/80/5 
f 11/80/5 10/216/5 7/72/5 
f 14/217/3 13/42/3 50/41/3 
f 50/41/3 53/218/3 14/217/3 
f 54/219/4 14/72/4 53/216/4 
f 53/216/4 52/220/4 54/219/4 
f 21/221/3 20/67/3 56/93/3 
f 56/93/3 59/222/3 21/221/3 
f 20/223/6 55/155/6 57/156/6 
f 57/156/6 56/224/6 20/223/6 
f 65/225/5 64/226/5 62/101/5 
f 62/101/5 61/92/5 68/66/5 
f 62/101/5 68/66/5 67/227/5 
f 65/225/5 62/101/5 67/227/5 
f 67/227/5 7/228/5 6/229/5 
f 65/225/5 67/227/5 6/229/5 
f 119/230/3 118/231/3 120/103/3 
f 120/103/3 123/176/3 116/85/3 
f 120/103/3 116/85/3 115/232/3 
f 119/230/3 120/103/3 115/232/3 
f 115/232/3 14/233/3 20/234/3 
f 119/230/3 115/232/3 20/234/3 
f 15/235/4 14/28/4 115/166/4 
f 15/235/4 115/166/4 47/236/4 
f 15/235/4 47/236/4 46/237/4 
f 16/238/4 15/235/4 46/237/4 
f 16/238/4 46/237/4 43/239/4 
f 16/238/4 43/239/4 42/240/4 
f 16/238/4 42/240/4 39/241/4 
f 16/238/4 39/241/4 38/242/4 
f 16/238/4 38/242/4 35/243/4 
f 16/238/4 35/243/4 34/244/4 
f 16/238/4 34/244/4 31/245/4 
f 16/238/4 31/245/4 30/246/4 
f 16/238/4 30/246/4 27/247/4 
f 16/238/4 27/247/4 26/248/4 
f 26/248/4 65/1/4 6/10/4 
f 16/238/4 26/248/4 6/10/4 
f 23/236/6 7/166/6 67/95/6 
f 23/236/6 67/95/6 29/249/6 
f 23/236/6 29/249/6 28/250/6 
f 23/236/6 28/250/6 33/251/6 
f 23/236/6 33/251/6 32/252/6 
f 23/236/6 32/252/6 37/253/6 
f 23/236/6 37/253/6 36/254/6 
f 23/236/6 36/254/6 41/255/6 
f 23/236/6 41/255/6 40/256/6 
f 23/236/6 40/256/6 45/257/6 
f 23/236/6 45/257/6 44/258/6 
f 48/259/6 119/2/6 20/1/6 
f 48/259/6 20/1/6 19/248/6 
f 49/260/6 48/259/6 19/248/6 
f 44/258/6 49/260/6 19/248/6 
f 23/236/6 44/258/6 19/248/6 
# 270 faces

